<svg width="1172.6000000000001" height="660.0" xmlns="http://www.w3.org/2000/svg" xmlns:xlink="http://www.w3.org/1999/xlink"><line x1="394.125" y1="7.5" x2="355.125" y2="32.0" style="stroke:black; stroke-width:1px;" />
<line x1="355.125" y1="39.5" x2="355.125" y2="64.0" style="stroke:black; stroke-width:1px;" />
<line x1="355.125" y1="71.5" x2="57.5" y2="96.0" style="stroke:black; stroke-width:1px;" />
<line x1="57.5" y1="103.5" x2="57.5" y2="128.0" style="stroke:black; stroke-width:1px;" />
<line x1="57.5" y1="135.5" x2="57.5" y2="160.0" style="stroke:black; stroke-width:1px;" />
<line x1="355.125" y1="71.5" x2="162.5" y2="96.0" style="stroke:black; stroke-width:1px;" />
<line x1="162.5" y1="103.5" x2="134.0" y2="128.0" style="stroke:black; stroke-width:1px;" />
<line x1="134.0" y1="135.5" x2="134.0" y2="160.0" style="stroke:black; stroke-width:1px;" />
<line x1="162.5" y1="103.5" x2="176.0" y2="128.0" style="stroke:black; stroke-width:1px;" />
<line x1="162.5" y1="103.5" x2="191.0" y2="128.0" style="stroke:black; stroke-width:1px;" />
<line x1="355.125" y1="71.5" x2="652.75" y2="96.0" style="stroke:black; stroke-width:1px;" />
<line x1="652.75" y1="103.5" x2="206.0" y2="128.0" style="stroke:black; stroke-width:1px;" />
<line x1="652.75" y1="103.5" x2="245.5" y2="128.0" style="stroke:black; stroke-width:1px;" />
<line x1="245.5" y1="135.5" x2="245.5" y2="160.0" style="stroke:black; stroke-width:1px;" />
<line x1="245.5" y1="167.5" x2="161.5" y2="192.0" style="stroke:black; stroke-width:1px;" />
<line x1="161.5" y1="199.5" x2="161.5" y2="224.0" style="stroke:black; stroke-width:1px;" />
<line x1="161.5" y1="231.5" x2="161.5" y2="256.0" style="stroke:black; stroke-width:1px;" />
<line x1="245.5" y1="167.5" x2="272.5" y2="192.0" style="stroke:black; stroke-width:1px;" />
<line x1="272.5" y1="199.5" x2="272.5" y2="224.0" style="stroke:black; stroke-width:1px;" />
<line x1="272.5" y1="231.5" x2="231.5" y2="256.0" style="stroke:black; stroke-width:1px;" />
<line x1="231.5" y1="263.5" x2="231.5" y2="288.0" style="stroke:black; stroke-width:1px;" />
<line x1="272.5" y1="231.5" x2="274.5" y2="256.0" style="stroke:black; stroke-width:1px;" />
<line x1="272.5" y1="231.5" x2="313.5" y2="256.0" style="stroke:black; stroke-width:1px;" />
<line x1="313.5" y1="263.5" x2="313.5" y2="288.0" style="stroke:black; stroke-width:1px;" />
<line x1="313.5" y1="295.5" x2="313.5" y2="320.0" style="stroke:black; stroke-width:1px;" />
<line x1="313.5" y1="327.5" x2="313.5" y2="352.0" style="stroke:black; stroke-width:1px;" />
<line x1="313.5" y1="359.5" x2="313.5" y2="384.0" style="stroke:black; stroke-width:1px;" />
<line x1="313.5" y1="391.5" x2="313.5" y2="416.0" style="stroke:black; stroke-width:1px;" />
<line x1="313.5" y1="423.5" x2="313.5" y2="448.0" style="stroke:black; stroke-width:1px;" />
<line x1="313.5" y1="455.5" x2="313.5" y2="480.0" style="stroke:black; stroke-width:1px;" />
<line x1="313.5" y1="487.5" x2="313.5" y2="512.0" style="stroke:black; stroke-width:1px;" />
<line x1="313.5" y1="519.5" x2="313.5" y2="544.0" style="stroke:black; stroke-width:1px;" />
<line x1="313.5" y1="551.5" x2="313.5" y2="576.0" style="stroke:black; stroke-width:1px;" />
<line x1="313.5" y1="583.5" x2="313.5" y2="608.0" style="stroke:black; stroke-width:1px;" />
<line x1="245.5" y1="167.5" x2="329.5" y2="192.0" style="stroke:black; stroke-width:1px;" />
<line x1="652.75" y1="103.5" x2="603.25" y2="128.0" style="stroke:black; stroke-width:1px;" />
<line x1="603.25" y1="135.5" x2="603.25" y2="160.0" style="stroke:black; stroke-width:1px;" />
<line x1="603.25" y1="167.5" x2="603.25" y2="192.0" style="stroke:black; stroke-width:1px;" />
<line x1="603.25" y1="199.5" x2="432.5" y2="224.0" style="stroke:black; stroke-width:1px;" />
<line x1="603.25" y1="199.5" x2="458.5" y2="224.0" style="stroke:black; stroke-width:1px;" />
<line x1="603.25" y1="199.5" x2="503.0" y2="224.0" style="stroke:black; stroke-width:1px;" />
<line x1="503.0" y1="231.5" x2="503.0" y2="256.0" style="stroke:black; stroke-width:1px;" />
<line x1="503.0" y1="263.5" x2="503.0" y2="288.0" style="stroke:black; stroke-width:1px;" />
<line x1="503.0" y1="295.5" x2="503.0" y2="320.0" style="stroke:black; stroke-width:1px;" />
<line x1="503.0" y1="327.5" x2="503.0" y2="352.0" style="stroke:black; stroke-width:1px;" />
<line x1="503.0" y1="359.5" x2="503.0" y2="384.0" style="stroke:black; stroke-width:1px;" />
<line x1="503.0" y1="391.5" x2="436.0" y2="416.0" style="stroke:black; stroke-width:1px;" />
<line x1="436.0" y1="423.5" x2="436.0" y2="448.0" style="stroke:black; stroke-width:1px;" />
<line x1="436.0" y1="455.5" x2="436.0" y2="480.0" style="stroke:black; stroke-width:1px;" />
<line x1="436.0" y1="487.5" x2="436.0" y2="512.0" style="stroke:black; stroke-width:1px;" />
<line x1="436.0" y1="519.5" x2="436.0" y2="544.0" style="stroke:black; stroke-width:1px;" />
<line x1="436.0" y1="551.5" x2="436.0" y2="576.0" style="stroke:black; stroke-width:1px;" />
<line x1="503.0" y1="391.5" x2="503.0" y2="416.0" style="stroke:black; stroke-width:1px;" />
<line x1="503.0" y1="391.5" x2="570.0" y2="416.0" style="stroke:black; stroke-width:1px;" />
<line x1="570.0" y1="423.5" x2="570.0" y2="448.0" style="stroke:black; stroke-width:1px;" />
<line x1="570.0" y1="455.5" x2="570.0" y2="480.0" style="stroke:black; stroke-width:1px;" />
<line x1="570.0" y1="487.5" x2="570.0" y2="512.0" style="stroke:black; stroke-width:1px;" />
<line x1="570.0" y1="519.5" x2="570.0" y2="544.0" style="stroke:black; stroke-width:1px;" />
<line x1="570.0" y1="551.5" x2="570.0" y2="576.0" style="stroke:black; stroke-width:1px;" />
<line x1="603.25" y1="199.5" x2="640.25" y2="224.0" style="stroke:black; stroke-width:1px;" />
<line x1="603.25" y1="199.5" x2="774.0" y2="224.0" style="stroke:black; stroke-width:1px;" />
<line x1="774.0" y1="231.5" x2="774.0" y2="256.0" style="stroke:black; stroke-width:1px;" />
<line x1="774.0" y1="263.5" x2="752.0" y2="288.0" style="stroke:black; stroke-width:1px;" />
<line x1="752.0" y1="295.5" x2="752.0" y2="320.0" style="stroke:black; stroke-width:1px;" />
<line x1="752.0" y1="327.5" x2="634.0" y2="352.0" style="stroke:black; stroke-width:1px;" />
<line x1="634.0" y1="359.5" x2="634.0" y2="384.0" style="stroke:black; stroke-width:1px;" />
<line x1="634.0" y1="391.5" x2="634.0" y2="416.0" style="stroke:black; stroke-width:1px;" />
<line x1="752.0" y1="327.5" x2="746.5" y2="352.0" style="stroke:black; stroke-width:1px;" />
<line x1="746.5" y1="359.5" x2="746.5" y2="384.0" style="stroke:black; stroke-width:1px;" />
<line x1="752.0" y1="327.5" x2="870.0" y2="352.0" style="stroke:black; stroke-width:1px;" />
<line x1="870.0" y1="359.5" x2="870.0" y2="384.0" style="stroke:black; stroke-width:1px;" />
<line x1="870.0" y1="391.5" x2="870.0" y2="416.0" style="stroke:black; stroke-width:1px;" />
<line x1="870.0" y1="423.5" x2="870.0" y2="448.0" style="stroke:black; stroke-width:1px;" />
<line x1="870.0" y1="455.5" x2="870.0" y2="480.0" style="stroke:black; stroke-width:1px;" />
<line x1="870.0" y1="487.5" x2="870.0" y2="512.0" style="stroke:black; stroke-width:1px;" />
<line x1="870.0" y1="519.5" x2="795.5" y2="544.0" style="stroke:black; stroke-width:1px;" />
<line x1="795.5" y1="551.5" x2="795.5" y2="576.0" style="stroke:black; stroke-width:1px;" />
<line x1="795.5" y1="583.5" x2="795.5" y2="608.0" style="stroke:black; stroke-width:1px;" />
<line x1="795.5" y1="615.5" x2="795.5" y2="640.0" style="stroke:black; stroke-width:1px;" />
<line x1="795.5" y1="647.5" x2="795.5" y2="672.0" style="stroke:black; stroke-width:1px;" />
<line x1="870.0" y1="519.5" x2="870.0" y2="544.0" style="stroke:black; stroke-width:1px;" />
<line x1="870.0" y1="519.5" x2="944.5" y2="544.0" style="stroke:black; stroke-width:1px;" />
<line x1="944.5" y1="551.5" x2="944.5" y2="576.0" style="stroke:black; stroke-width:1px;" />
<line x1="944.5" y1="583.5" x2="944.5" y2="608.0" style="stroke:black; stroke-width:1px;" />
<line x1="944.5" y1="615.5" x2="944.5" y2="640.0" style="stroke:black; stroke-width:1px;" />
<line x1="944.5" y1="647.5" x2="944.5" y2="672.0" style="stroke:black; stroke-width:1px;" />
<line x1="774.0" y1="263.5" x2="796.0" y2="288.0" style="stroke:black; stroke-width:1px;" />
<line x1="652.75" y1="103.5" x2="1060.0" y2="128.0" style="stroke:black; stroke-width:1px;" />
<line x1="1060.0" y1="135.5" x2="1060.0" y2="160.0" style="stroke:black; stroke-width:1px;" />
<line x1="1060.0" y1="167.5" x2="1060.0" y2="192.0" style="stroke:black; stroke-width:1px;" />
<line x1="1060.0" y1="199.5" x2="1009.5" y2="224.0" style="stroke:black; stroke-width:1px;" />
<line x1="1060.0" y1="199.5" x2="1066.5" y2="224.0" style="stroke:black; stroke-width:1px;" />
<line x1="1066.5" y1="231.5" x2="1066.5" y2="256.0" style="stroke:black; stroke-width:1px;" />
<line x1="1066.5" y1="263.5" x2="1066.5" y2="288.0" style="stroke:black; stroke-width:1px;" />
<line x1="1066.5" y1="295.5" x2="1066.5" y2="320.0" style="stroke:black; stroke-width:1px;" />
<line x1="1066.5" y1="327.5" x2="1066.5" y2="352.0" style="stroke:black; stroke-width:1px;" />
<line x1="1066.5" y1="359.5" x2="1066.5" y2="384.0" style="stroke:black; stroke-width:1px;" />
<line x1="1066.5" y1="391.5" x2="1066.5" y2="416.0" style="stroke:black; stroke-width:1px;" />
<line x1="1066.5" y1="423.5" x2="1066.5" y2="448.0" style="stroke:black; stroke-width:1px;" />
<line x1="1066.5" y1="455.5" x2="1066.5" y2="480.0" style="stroke:black; stroke-width:1px;" />
<line x1="1066.5" y1="487.5" x2="1066.5" y2="512.0" style="stroke:black; stroke-width:1px;" />
<line x1="1066.5" y1="519.5" x2="1066.5" y2="544.0" style="stroke:black; stroke-width:1px;" />
<line x1="1066.5" y1="551.5" x2="1066.5" y2="576.0" style="stroke:black; stroke-width:1px;" />
<line x1="1060.0" y1="199.5" x2="1110.5" y2="224.0" style="stroke:black; stroke-width:1px;" />
<line x1="652.75" y1="103.5" x2="1099.5" y2="128.0" style="stroke:black; stroke-width:1px;" />
<line x1="394.125" y1="7.5" x2="433.125" y2="32.0" style="stroke:black; stroke-width:1px;" />
<rect x="893.0" y="640.0" width="103.0" height="15.0" style="fill:orange; stroke:rgb(0,0,0);" rx="1"/>
<text x="895" y="649" style="font-family:sans-serif;font-size:10px;">
primaryExpression:2
</text>
<rect x="372.5" y="448.0" width="127.0" height="15.0" style="fill:orange; stroke:rgb(0,0,0);" rx="1"/>
<text x="374" y="457" style="font-family:sans-serif;font-size:10px;">
multiplicativeExpression:1
</text>
<rect x="255.0" y="352.0" width="117.0" height="15.0" style="fill:orange; stroke:rgb(0,0,0);" rx="1"/>
<text x="257" y="361" style="font-family:sans-serif;font-size:10px;">
logicalAndExpression:1
</text>
<rect x="506.5" y="448.0" width="127.0" height="15.0" style="fill:orange; stroke:rgb(0,0,0);" rx="1"/>
<text x="508" y="457" style="font-family:sans-serif;font-size:10px;">
multiplicativeExpression:1
</text>
<rect x="811.5" y="416.0" width="117.0" height="15.0" style="fill:orange; stroke:rgb(0,0,0);" rx="1"/>
<text x="813" y="425" style="font-family:sans-serif;font-size:10px;">
logicalAndExpression:1
</text>
<rect x="1014.5" y="352.0" width="104.0" height="15.0" style="fill:orange; stroke:rgb(0,0,0);" rx="1"/>
<text x="1016" y="361" style="font-family:sans-serif;font-size:10px;">
equalityExpression:1
</text>
<rect x="262.0" y="576.0" width="103.0" height="15.0" style="fill:orange; stroke:rgb(0,0,0);" rx="1"/>
<text x="264" y="585" style="font-family:sans-serif;font-size:10px;">
primaryExpression:2
</text>
<rect x="744.0" y="224.0" width="60.0" height="15.0" style="fill:orange; stroke:rgb(0,0,0);" rx="1"/>
<text x="746" y="233" style="font-family:sans-serif;font-size:10px;">
statement:3
</text>
<rect x="881.0" y="544.0" width="127.0" height="15.0" style="fill:orange; stroke:rgb(0,0,0);" rx="1"/>
<text x="883" y="553" style="font-family:sans-serif;font-size:10px;">
multiplicativeExpression:1
</text>
<rect x="217.0" y="128.0" width="57.0" height="15.0" style="fill:orange; stroke:rgb(0,0,0);" rx="1"/>
<text x="219" y="137" style="font-family:sans-serif;font-size:10px;">
blockItem:2
</text>
<rect x="444.5" y="320.0" width="117.0" height="15.0" style="fill:orange; stroke:rgb(0,0,0);" rx="1"/>
<text x="446" y="329" style="font-family:sans-serif;font-size:10px;">
logicalAndExpression:1
</text>
<rect x="269.5" y="512.0" width="88.0" height="15.0" style="fill:orange; stroke:rgb(0,0,0);" rx="1"/>
<text x="271" y="521" style="font-family:sans-serif;font-size:10px;">
castExpression:2
</text>
<rect x="809.0" y="352.0" width="122.0" height="15.0" style="fill:orange; stroke:rgb(0,0,0);" rx="1"/>
<text x="811" y="361" style="font-family:sans-serif;font-size:10px;">
assignmentExpression:1
</text>
<rect x="574.75" y="128.0" width="57.0" height="15.0" style="fill:orange; stroke:rgb(0,0,0);" rx="1"/>
<text x="576" y="137" style="font-family:sans-serif;font-size:10px;">
blockItem:1
</text>
<rect x="597.25" y="96.0" width="111.0" height="15.0" style="fill:orange; stroke:rgb(0,0,0);" rx="1"/>
<text x="599" y="105" style="font-family:sans-serif;font-size:10px;">
compoundStatement:1
</text>
<rect x="573.25" y="160.0" width="60.0" height="15.0" style="fill:orange; stroke:rgb(0,0,0);" rx="1"/>
<text x="575" y="169" style="font-family:sans-serif;font-size:10px;">
statement:5
</text>
<rect x="226.5" y="288.0" width="10.0" height="15.0" style="fill:orange; stroke:rgb(0,0,0);" rx="1"/>
<text x="228" y="297" style="font-family:sans-serif;font-size:10px;">
a
</text>
<rect x="0.0" y="96.0" width="115.0" height="15.0" style="fill:orange; stroke:rgb(0,0,0);" rx="1"/>
<text x="2" y="105" style="font-family:sans-serif;font-size:10px;">
declarationSpecifiers:1
</text>
<rect x="384.5" y="544.0" width="103.0" height="15.0" style="fill:orange; stroke:rgb(0,0,0);" rx="1"/>
<text x="386" y="553" style="font-family:sans-serif;font-size:10px;">
primaryExpression:1
</text>
<rect x="718.5" y="288.0" width="67.0" height="15.0" style="fill:orange; stroke:rgb(0,0,0);" rx="1"/>
<text x="720" y="297" style="font-family:sans-serif;font-size:10px;">
expression:1
</text>
<rect x="431.0" y="576.0" width="10.0" height="15.0" style="fill:orange; stroke:rgb(0,0,0);" rx="1"/>
<text x="433" y="585" style="font-family:sans-serif;font-size:10px;">
a
</text>
<rect x="200.5" y="256.0" width="62.0" height="15.0" style="fill:orange; stroke:rgb(0,0,0);" rx="1"/>
<text x="202" y="265" style="font-family:sans-serif;font-size:10px;">
declarator:1
</text>
<rect x="234.5" y="224.0" width="76.0" height="15.0" style="fill:orange; stroke:rgb(0,0,0);" rx="1"/>
<text x="236" y="233" style="font-family:sans-serif;font-size:10px;">
initDeclarator:1
</text>
<rect x="302.125" y="32.0" width="106.0" height="15.0" style="fill:orange; stroke:rgb(0,0,0);" rx="1"/>
<text x="304" y="41" style="font-family:sans-serif;font-size:10px;">
externalDeclaration:1
</text>
<rect x="121.0" y="160.0" width="26.0" height="15.0" style="fill:orange; stroke:rgb(0,0,0);" rx="1"/>
<text x="123" y="169" style="font-family:sans-serif;font-size:10px;">
main
</text>
<rect x="50.0" y="160.0" width="15.0" height="15.0" style="fill:orange; stroke:rgb(0,0,0);" rx="1"/>
<text x="52" y="169" style="font-family:sans-serif;font-size:10px;">
int
</text>
<rect x="202.0" y="128.0" width="8.0" height="15.0" style="fill:orange; stroke:rgb(0,0,0);" rx="1"/>
<text x="204" y="137" style="font-family:sans-serif;font-size:10px;">
{
</text>
<rect x="582.5" y="384.0" width="103.0" height="15.0" style="fill:orange; stroke:rgb(0,0,0);" rx="1"/>
<text x="584" y="393" style="font-family:sans-serif;font-size:10px;">
primaryExpression:1
</text>
<rect x="131.5" y="96.0" width="62.0" height="15.0" style="fill:orange; stroke:rgb(0,0,0);" rx="1"/>
<text x="133" y="105" style="font-family:sans-serif;font-size:10px;">
declarator:5
</text>
<rect x="103.0" y="128.0" width="62.0" height="15.0" style="fill:orange; stroke:rgb(0,0,0);" rx="1"/>
<text x="105" y="137" style="font-family:sans-serif;font-size:10px;">
declarator:1
</text>
<rect x="104.0" y="192.0" width="115.0" height="15.0" style="fill:orange; stroke:rgb(0,0,0);" rx="1"/>
<text x="106" y="201" style="font-family:sans-serif;font-size:10px;">
declarationSpecifiers:1
</text>
<rect x="1005.5" y="256.0" width="122.0" height="15.0" style="fill:orange; stroke:rgb(0,0,0);" rx="1"/>
<text x="1007" y="265" style="font-family:sans-serif;font-size:10px;">
assignmentExpression:1
</text>
<rect x="454.5" y="224.0" width="8.0" height="15.0" style="fill:orange; stroke:rgb(0,0,0);" rx="1"/>
<text x="456" y="233" style="font-family:sans-serif;font-size:10px;">
(
</text>
<rect x="818.0" y="448.0" width="104.0" height="15.0" style="fill:orange; stroke:rgb(0,0,0);" rx="1"/>
<text x="820" y="457" style="font-family:sans-serif;font-size:10px;">
equalityExpression:1
</text>
<rect x="259.0" y="320.0" width="109.0" height="15.0" style="fill:orange; stroke:rgb(0,0,0);" rx="1"/>
<text x="261" y="329" style="font-family:sans-serif;font-size:10px;">
logicalOrExpression:1
</text>
<rect x="866.0" y="544.0" width="8.0" height="15.0" style="fill:orange; stroke:rgb(0,0,0);" rx="1"/>
<text x="868" y="553" style="font-family:sans-serif;font-size:10px;">
-
</text>
<rect x="818.0" y="512.0" width="104.0" height="15.0" style="fill:orange; stroke:rgb(0,0,0);" rx="1"/>
<text x="820" y="521" style="font-family:sans-serif;font-size:10px;">
additiveExpression:1
</text>
<rect x="307.125" y="64.0" width="96.0" height="15.0" style="fill:orange; stroke:rgb(0,0,0);" rx="1"/>
<text x="309" y="73" style="font-family:sans-serif;font-size:10px;">
functionDefinition:1
</text>
<rect x="629.0" y="416.0" width="10.0" height="15.0" style="fill:orange; stroke:rgb(0,0,0);" rx="1"/>
<text x="631" y="425" style="font-family:sans-serif;font-size:10px;">
a
</text>
<rect x="154.0" y="256.0" width="15.0" height="15.0" style="fill:orange; stroke:rgb(0,0,0);" rx="1"/>
<text x="156" y="265" style="font-family:sans-serif;font-size:10px;">
int
</text>
<rect x="1033.0" y="224.0" width="67.0" height="15.0" style="fill:orange; stroke:rgb(0,0,0);" rx="1"/>
<text x="1035" y="233" style="font-family:sans-serif;font-size:10px;">
expression:1
</text>
<rect x="518.0" y="416.0" width="104.0" height="15.0" style="fill:orange; stroke:rgb(0,0,0);" rx="1"/>
<text x="520" y="425" style="font-family:sans-serif;font-size:10px;">
additiveExpression:1
</text>
<rect x="384.0" y="416.0" width="104.0" height="15.0" style="fill:orange; stroke:rgb(0,0,0);" rx="1"/>
<text x="386" y="425" style="font-family:sans-serif;font-size:10px;">
additiveExpression:1
</text>
<rect x="691.0" y="320.0" width="122.0" height="15.0" style="fill:orange; stroke:rgb(0,0,0);" rx="1"/>
<text x="693" y="329" style="font-family:sans-serif;font-size:10px;">
assignmentExpression:2
</text>
<rect x="172.0" y="128.0" width="8.0" height="15.0" style="fill:orange; stroke:rgb(0,0,0);" rx="1"/>
<text x="174" y="137" style="font-family:sans-serif;font-size:10px;">
(
</text>
<rect x="1011.5" y="384.0" width="110.0" height="15.0" style="fill:orange; stroke:rgb(0,0,0);" rx="1"/>
<text x="1013" y="393" style="font-family:sans-serif;font-size:10px;">
relationalExpression:1
</text>
<rect x="745.5" y="608.0" width="100.0" height="15.0" style="fill:orange; stroke:rgb(0,0,0);" rx="1"/>
<text x="747" y="617" style="font-family:sans-serif;font-size:10px;">
postfixExpression:1
</text>
<rect x="495.0" y="416.0" width="16.0" height="15.0" style="fill:orange; stroke:rgb(0,0,0);" rx="1"/>
<text x="497" y="425" style="font-family:sans-serif;font-size:10px;">
&gt;=
</text>
<rect x="19.0" y="128.0" width="77.0" height="15.0" style="fill:orange; stroke:rgb(0,0,0);" rx="1"/>
<text x="21" y="137" style="font-family:sans-serif;font-size:10px;">
typeSpecifier:1
</text>
<rect x="417.5" y="224.0" width="30.0" height="15.0" style="fill:orange; stroke:rgb(0,0,0);" rx="1"/>
<text x="419" y="233" style="font-family:sans-serif;font-size:10px;">
while
</text>
<rect x="526.0" y="480.0" width="88.0" height="15.0" style="fill:orange; stroke:rgb(0,0,0);" rx="1"/>
<text x="528" y="489" style="font-family:sans-serif;font-size:10px;">
castExpression:2
</text>
<rect x="1107.0" y="224.0" width="7.0" height="15.0" style="fill:orange; stroke:rgb(0,0,0);" rx="1"/>
<text x="1109" y="233" style="font-family:sans-serif;font-size:10px;">
;
</text>
<rect x="252.5" y="288.0" width="122.0" height="15.0" style="fill:orange; stroke:rgb(0,0,0);" rx="1"/>
<text x="254" y="297" style="font-family:sans-serif;font-size:10px;">
assignmentExpression:1
</text>
<rect x="751.5" y="576.0" width="88.0" height="15.0" style="fill:orange; stroke:rgb(0,0,0);" rx="1"/>
<text x="753" y="585" style="font-family:sans-serif;font-size:10px;">
castExpression:2
</text>
<rect x="261.5" y="448.0" width="104.0" height="15.0" style="fill:orange; stroke:rgb(0,0,0);" rx="1"/>
<text x="263" y="457" style="font-family:sans-serif;font-size:10px;">
additiveExpression:1
</text>
<rect x="1061.5" y="576.0" width="10.0" height="15.0" style="fill:orange; stroke:rgb(0,0,0);" rx="1"/>
<text x="1063" y="585" style="font-family:sans-serif;font-size:10px;">
a
</text>
<rect x="1015.0" y="544.0" width="103.0" height="15.0" style="fill:orange; stroke:rgb(0,0,0);" rx="1"/>
<text x="1017" y="553" style="font-family:sans-serif;font-size:10px;">
primaryExpression:1
</text>
<rect x="993.0" y="224.0" width="33.0" height="15.0" style="fill:orange; stroke:rgb(0,0,0);" rx="1"/>
<text x="995" y="233" style="font-family:sans-serif;font-size:10px;">
return
</text>
<rect x="187.0" y="128.0" width="8.0" height="15.0" style="fill:orange; stroke:rgb(0,0,0);" rx="1"/>
<text x="189" y="137" style="font-family:sans-serif;font-size:10px;">
)
</text>
<rect x="451.0" y="352.0" width="104.0" height="15.0" style="fill:orange; stroke:rgb(0,0,0);" rx="1"/>
<text x="453" y="361" style="font-family:sans-serif;font-size:10px;">
equalityExpression:1
</text>
<rect x="1003.0" y="448.0" width="127.0" height="15.0" style="fill:orange; stroke:rgb(0,0,0);" rx="1"/>
<text x="1005" y="457" style="font-family:sans-serif;font-size:10px;">
multiplicativeExpression:1
</text>
<rect x="792.5" y="288.0" width="7.0" height="15.0" style="fill:orange; stroke:rgb(0,0,0);" rx="1"/>
<text x="794" y="297" style="font-family:sans-serif;font-size:10px;">
;
</text>
<rect x="553.75" y="192.0" width="99.0" height="15.0" style="fill:orange; stroke:rgb(0,0,0);" rx="1"/>
<text x="555" y="201" style="font-family:sans-serif;font-size:10px;">
iterationStatement:1
</text>
<rect x="790.5" y="672.0" width="10.0" height="15.0" style="fill:orange; stroke:rgb(0,0,0);" rx="1"/>
<text x="792" y="681" style="font-family:sans-serif;font-size:10px;">
a
</text>
<rect x="1022.5" y="480.0" width="88.0" height="15.0" style="fill:orange; stroke:rgb(0,0,0);" rx="1"/>
<text x="1024" y="489" style="font-family:sans-serif;font-size:10px;">
castExpression:2
</text>
<rect x="352.125" y="0.0" width="84.0" height="15.0" style="fill:orange; stroke:rgb(0,0,0);" rx="1"/>
<text x="354" y="9" style="font-family:sans-serif;font-size:10px;">
compilationUnit:1
</text>
<rect x="258.5" y="416.0" width="110.0" height="15.0" style="fill:orange; stroke:rgb(0,0,0);" rx="1"/>
<text x="260" y="425" style="font-family:sans-serif;font-size:10px;">
relationalExpression:1
</text>
<rect x="392.0" y="480.0" width="88.0" height="15.0" style="fill:orange; stroke:rgb(0,0,0);" rx="1"/>
<text x="394" y="489" style="font-family:sans-serif;font-size:10px;">
castExpression:2
</text>
<rect x="815.5" y="384.0" width="109.0" height="15.0" style="fill:orange; stroke:rgb(0,0,0);" rx="1"/>
<text x="817" y="393" style="font-family:sans-serif;font-size:10px;">
logicalOrExpression:1
</text>
<rect x="636.25" y="224.0" width="8.0" height="15.0" style="fill:orange; stroke:rgb(0,0,0);" rx="1"/>
<text x="638" y="233" style="font-family:sans-serif;font-size:10px;">
)
</text>
<rect x="815.0" y="480.0" width="110.0" height="15.0" style="fill:orange; stroke:rgb(0,0,0);" rx="1"/>
<text x="817" y="489" style="font-family:sans-serif;font-size:10px;">
relationalExpression:1
</text>
<rect x="691.0" y="352.0" width="111.0" height="15.0" style="fill:orange; stroke:rgb(0,0,0);" rx="1"/>
<text x="693" y="361" style="font-family:sans-serif;font-size:10px;">
assignmentOperator:1
</text>
<rect x="448.5" y="288.0" width="109.0" height="15.0" style="fill:orange; stroke:rgb(0,0,0);" rx="1"/>
<text x="450" y="297" style="font-family:sans-serif;font-size:10px;">
logicalOrExpression:1
</text>
<rect x="448.0" y="384.0" width="110.0" height="15.0" style="fill:orange; stroke:rgb(0,0,0);" rx="1"/>
<text x="450" y="393" style="font-family:sans-serif;font-size:10px;">
relationalExpression:1
</text>
<rect x="518.5" y="544.0" width="103.0" height="15.0" style="fill:orange; stroke:rgb(0,0,0);" rx="1"/>
<text x="520" y="553" style="font-family:sans-serif;font-size:10px;">
primaryExpression:2
</text>
<rect x="415.125" y="32.0" width="36.0" height="15.0" style="fill:orange; stroke:rgb(0,0,0);" rx="1"/>
<text x="417" y="41" style="font-family:sans-serif;font-size:10px;">
&lt;EOF&gt;
</text>
<rect x="1012.0" y="288.0" width="109.0" height="15.0" style="fill:orange; stroke:rgb(0,0,0);" rx="1"/>
<text x="1014" y="297" style="font-family:sans-serif;font-size:10px;">
logicalOrExpression:1
</text>
<rect x="226.0" y="192.0" width="93.0" height="15.0" style="fill:orange; stroke:rgb(0,0,0);" rx="1"/>
<text x="228" y="201" style="font-family:sans-serif;font-size:10px;">
initDeclaratorList:1
</text>
<rect x="263.5" y="544.0" width="100.0" height="15.0" style="fill:orange; stroke:rgb(0,0,0);" rx="1"/>
<text x="265" y="553" style="font-family:sans-serif;font-size:10px;">
postfixExpression:1
</text>
<rect x="1016.5" y="512.0" width="100.0" height="15.0" style="fill:orange; stroke:rgb(0,0,0);" rx="1"/>
<text x="1018" y="521" style="font-family:sans-serif;font-size:10px;">
postfixExpression:1
</text>
<rect x="900.5" y="576.0" width="88.0" height="15.0" style="fill:orange; stroke:rgb(0,0,0);" rx="1"/>
<text x="902" y="585" style="font-family:sans-serif;font-size:10px;">
castExpression:2
</text>
<rect x="305.5" y="608.0" width="16.0" height="15.0" style="fill:orange; stroke:rgb(0,0,0);" rx="1"/>
<text x="307" y="617" style="font-family:sans-serif;font-size:10px;">
42
</text>
<rect x="1008.0" y="320.0" width="117.0" height="15.0" style="fill:orange; stroke:rgb(0,0,0);" rx="1"/>
<text x="1010" y="329" style="font-family:sans-serif;font-size:10px;">
logicalAndExpression:1
</text>
<rect x="894.5" y="608.0" width="100.0" height="15.0" style="fill:orange; stroke:rgb(0,0,0);" rx="1"/>
<text x="896" y="617" style="font-family:sans-serif;font-size:10px;">
postfixExpression:1
</text>
<rect x="261.5" y="384.0" width="104.0" height="15.0" style="fill:orange; stroke:rgb(0,0,0);" rx="1"/>
<text x="263" y="393" style="font-family:sans-serif;font-size:10px;">
equalityExpression:1
</text>
<rect x="732.0" y="544.0" width="127.0" height="15.0" style="fill:orange; stroke:rgb(0,0,0);" rx="1"/>
<text x="734" y="553" style="font-family:sans-serif;font-size:10px;">
multiplicativeExpression:1
</text>
<rect x="250.0" y="480.0" width="127.0" height="15.0" style="fill:orange; stroke:rgb(0,0,0);" rx="1"/>
<text x="252" y="489" style="font-family:sans-serif;font-size:10px;">
multiplicativeExpression:1
</text>
<rect x="744.0" y="640.0" width="103.0" height="15.0" style="fill:orange; stroke:rgb(0,0,0);" rx="1"/>
<text x="746" y="649" style="font-family:sans-serif;font-size:10px;">
primaryExpression:1
</text>
<rect x="1018.5" y="192.0" width="83.0" height="15.0" style="fill:orange; stroke:rgb(0,0,0);" rx="1"/>
<text x="1020" y="201" style="font-family:sans-serif;font-size:10px;">
jumpStatement:1
</text>
<rect x="123.0" y="224.0" width="77.0" height="15.0" style="fill:orange; stroke:rgb(0,0,0);" rx="1"/>
<text x="125" y="233" style="font-family:sans-serif;font-size:10px;">
typeSpecifier:1
</text>
<rect x="565.0" y="576.0" width="10.0" height="15.0" style="fill:orange; stroke:rgb(0,0,0);" rx="1"/>
<text x="567" y="585" style="font-family:sans-serif;font-size:10px;">
7
</text>
<rect x="286.5" y="256.0" width="54.0" height="15.0" style="fill:orange; stroke:rgb(0,0,0);" rx="1"/>
<text x="288" y="265" style="font-family:sans-serif;font-size:10px;">
initializer:1
</text>
<rect x="1030.0" y="160.0" width="60.0" height="15.0" style="fill:orange; stroke:rgb(0,0,0);" rx="1"/>
<text x="1032" y="169" style="font-family:sans-serif;font-size:10px;">
statement:6
</text>
<rect x="269.5" y="256.0" width="10.0" height="15.0" style="fill:orange; stroke:rgb(0,0,0);" rx="1"/>
<text x="271" y="265" style="font-family:sans-serif;font-size:10px;">
=
</text>
<rect x="442.0" y="256.0" width="122.0" height="15.0" style="fill:orange; stroke:rgb(0,0,0);" rx="1"/>
<text x="444" y="265" style="font-family:sans-serif;font-size:10px;">
assignmentExpression:1
</text>
<rect x="326.0" y="192.0" width="7.0" height="15.0" style="fill:orange; stroke:rgb(0,0,0);" rx="1"/>
<text x="328" y="201" style="font-family:sans-serif;font-size:10px;">
;
</text>
<rect x="386.0" y="512.0" width="100.0" height="15.0" style="fill:orange; stroke:rgb(0,0,0);" rx="1"/>
<text x="388" y="521" style="font-family:sans-serif;font-size:10px;">
postfixExpression:1
</text>
<rect x="939.5" y="672.0" width="10.0" height="15.0" style="fill:orange; stroke:rgb(0,0,0);" rx="1"/>
<text x="941" y="681" style="font-family:sans-serif;font-size:10px;">
7
</text>
<rect x="1014.5" y="416.0" width="104.0" height="15.0" style="fill:orange; stroke:rgb(0,0,0);" rx="1"/>
<text x="1016" y="425" style="font-family:sans-serif;font-size:10px;">
additiveExpression:1
</text>
<rect x="520.0" y="512.0" width="100.0" height="15.0" style="fill:orange; stroke:rgb(0,0,0);" rx="1"/>
<text x="522" y="521" style="font-family:sans-serif;font-size:10px;">
postfixExpression:1
</text>
<rect x="1031.5" y="128.0" width="57.0" height="15.0" style="fill:orange; stroke:rgb(0,0,0);" rx="1"/>
<text x="1033" y="137" style="font-family:sans-serif;font-size:10px;">
blockItem:1
</text>
<rect x="212.5" y="160.0" width="66.0" height="15.0" style="fill:orange; stroke:rgb(0,0,0);" rx="1"/>
<text x="214" y="169" style="font-family:sans-serif;font-size:10px;">
declaration:1
</text>
<rect x="1095.5" y="128.0" width="8.0" height="15.0" style="fill:orange; stroke:rgb(0,0,0);" rx="1"/>
<text x="1097" y="137" style="font-family:sans-serif;font-size:10px;">
}
</text>
<rect x="584.0" y="352.0" width="100.0" height="15.0" style="fill:orange; stroke:rgb(0,0,0);" rx="1"/>
<text x="586" y="361" style="font-family:sans-serif;font-size:10px;">
postfixExpression:1
</text>
<rect x="469.5" y="224.0" width="67.0" height="15.0" style="fill:orange; stroke:rgb(0,0,0);" rx="1"/>
<text x="471" y="233" style="font-family:sans-serif;font-size:10px;">
expression:1
</text>
<rect x="716.5" y="256.0" width="115.0" height="15.0" style="fill:orange; stroke:rgb(0,0,0);" rx="1"/>
<text x="718" y="265" style="font-family:sans-serif;font-size:10px;">
expressionStatement:1
</text>
<rect x="741.5" y="384.0" width="10.0" height="15.0" style="fill:orange; stroke:rgb(0,0,0);" rx="1"/>
<text x="743" y="393" style="font-family:sans-serif;font-size:10px;">
=
</text>
</svg>