<?xml version="1.0" encoding="UTF-8"?><svg xmlns="http://www.w3.org/2000/svg" xmlns:xlink="http://www.w3.org/1999/xlink" fill-opacity="1" color-rendering="auto" color-interpolation="auto" text-rendering="auto" stroke="black" stroke-linecap="square" width="330" stroke-miterlimit="10" shape-rendering="auto" stroke-opacity="1" fill="black" stroke-dasharray="none" font-weight="normal" stroke-width="1" height="199" font-family="'Dialog'" font-style="normal" stroke-linejoin="miter" font-size="12px" stroke-dashoffset="0" image-rendering="auto">
  <!--Generated by ySVG 2.6-->
  <defs id="genericDefs"/>
  <g>
    <defs id="defs1">
      <clipPath clipPathUnits="userSpaceOnUse" id="clipPath1">
        <path d="M0 0 L330 0 L330 199 L0 199 L0 0 Z"/>
      </clipPath>
      <clipPath clipPathUnits="userSpaceOnUse" id="clipPath2">
        <path d="M100 102 L430 102 L430 301 L100 301 L100 102 Z"/>
      </clipPath>
    </defs>
    <g fill="white" text-rendering="geometricPrecision" shape-rendering="geometricPrecision" transform="translate(-100,-102)" stroke="white">
      <rect x="100" width="330" height="199" y="102" clip-path="url(#clipPath2)" stroke="none"/>
    </g>
    <g fill="rgb(255,204,0)" text-rendering="geometricPrecision" shape-rendering="geometricPrecision" transform="matrix(1,0,0,1,-100,-102)" stroke="rgb(255,204,0)">
      <circle r="15" clip-path="url(#clipPath2)" cx="161.4" cy="156.25" stroke="none"/>
    </g>
    <g text-rendering="geometricPrecision" stroke-miterlimit="1.45" shape-rendering="geometricPrecision" transform="matrix(1,0,0,1,-100,-102)" stroke-linecap="butt">
      <circle fill="none" r="15" clip-path="url(#clipPath2)" cx="161.4" cy="156.25"/>
      <text x="157.398" xml:space="preserve" y="160.9639" clip-path="url(#clipPath2)" font-family="sans-serif" stroke="none">A</text>
    </g>
    <g fill="rgb(255,204,0)" text-rendering="geometricPrecision" shape-rendering="geometricPrecision" transform="matrix(1,0,0,1,-100,-102)" stroke="rgb(255,204,0)">
      <circle r="0.5" clip-path="url(#clipPath2)" cx="115.9" cy="156.25" stroke="none"/>
    </g>
    <g text-rendering="geometricPrecision" stroke-miterlimit="1.45" shape-rendering="geometricPrecision" transform="matrix(1,0,0,1,-100,-102)" stroke-linecap="butt">
      <circle fill="none" r="0.5" clip-path="url(#clipPath2)" cx="115.9" cy="156.25"/>
    </g>
    <g fill="rgb(255,204,0)" text-rendering="geometricPrecision" shape-rendering="geometricPrecision" transform="matrix(1,0,0,1,-100,-102)" stroke="rgb(255,204,0)">
      <circle r="0.5" clip-path="url(#clipPath2)" cx="333.1" cy="119.8136" stroke="none"/>
    </g>
    <g text-rendering="geometricPrecision" stroke-miterlimit="1.45" shape-rendering="geometricPrecision" transform="matrix(1,0,0,1,-100,-102)" stroke-linecap="butt">
      <circle fill="none" r="0.5" clip-path="url(#clipPath2)" cx="333.1" cy="119.8136"/>
    </g>
    <g fill="rgb(255,204,0)" text-rendering="geometricPrecision" shape-rendering="geometricPrecision" transform="matrix(1,0,0,1,-100,-102)" stroke="rgb(255,204,0)">
      <circle r="15" clip-path="url(#clipPath2)" cx="333.1" cy="156.25" stroke="none"/>
    </g>
    <g text-rendering="geometricPrecision" stroke-miterlimit="1.45" shape-rendering="geometricPrecision" transform="matrix(1,0,0,1,-100,-102)" stroke-linecap="butt">
      <circle fill="none" r="15" clip-path="url(#clipPath2)" cx="333.1" cy="156.25"/>
      <text x="329.435" xml:space="preserve" y="160.9639" clip-path="url(#clipPath2)" font-family="sans-serif" stroke="none">F</text>
    </g>
    <g fill="rgb(255,204,0)" text-rendering="geometricPrecision" shape-rendering="geometricPrecision" transform="matrix(1,0,0,1,-100,-102)" stroke="rgb(255,204,0)">
      <circle r="15" clip-path="url(#clipPath2)" cx="241.4" cy="156.25" stroke="none"/>
    </g>
    <g text-rendering="geometricPrecision" stroke-miterlimit="1.45" shape-rendering="geometricPrecision" transform="matrix(1,0,0,1,-100,-102)" stroke-linecap="butt">
      <circle fill="none" r="15" clip-path="url(#clipPath2)" cx="241.4" cy="156.25"/>
      <text x="237.398" xml:space="preserve" y="160.9639" clip-path="url(#clipPath2)" font-family="sans-serif" stroke="none">B</text>
    </g>
    <g fill="rgb(255,204,0)" text-rendering="geometricPrecision" shape-rendering="geometricPrecision" transform="matrix(1,0,0,1,-100,-102)" stroke="rgb(255,204,0)">
      <circle r="15" clip-path="url(#clipPath2)" cx="161.4" cy="222.6052" stroke="none"/>
    </g>
    <g text-rendering="geometricPrecision" stroke-miterlimit="1.45" shape-rendering="geometricPrecision" transform="matrix(1,0,0,1,-100,-102)" stroke-linecap="butt">
      <circle fill="none" r="15" clip-path="url(#clipPath2)" cx="161.4" cy="222.6052"/>
      <text x="157.067" xml:space="preserve" y="227.3191" clip-path="url(#clipPath2)" font-family="sans-serif" stroke="none">C</text>
    </g>
    <g fill="rgb(255,204,0)" text-rendering="geometricPrecision" shape-rendering="geometricPrecision" transform="matrix(1,0,0,1,-100,-102)" stroke="rgb(255,204,0)">
      <circle r="15" clip-path="url(#clipPath2)" cx="399.608" cy="246.325" stroke="none"/>
    </g>
    <g text-rendering="geometricPrecision" stroke-miterlimit="1.45" shape-rendering="geometricPrecision" transform="matrix(1,0,0,1,-100,-102)" stroke-linecap="butt">
      <circle fill="none" r="15" clip-path="url(#clipPath2)" cx="399.608" cy="246.325"/>
      <text x="395.275" xml:space="preserve" y="251.0389" clip-path="url(#clipPath2)" font-family="sans-serif" stroke="none">D</text>
    </g>
    <g fill="rgb(255,204,0)" text-rendering="geometricPrecision" shape-rendering="geometricPrecision" transform="matrix(1,0,0,1,-100,-102)" stroke="rgb(255,204,0)">
      <circle r="0.5" clip-path="url(#clipPath2)" cx="241.4" cy="279.125" stroke="none"/>
    </g>
    <g text-rendering="geometricPrecision" stroke-miterlimit="1.45" shape-rendering="geometricPrecision" transform="matrix(1,0,0,1,-100,-102)" stroke-linecap="butt">
      <circle fill="none" r="0.5" clip-path="url(#clipPath2)" cx="241.4" cy="279.125"/>
    </g>
    <g fill="rgb(255,204,0)" text-rendering="geometricPrecision" shape-rendering="geometricPrecision" transform="matrix(1,0,0,1,-100,-102)" stroke="rgb(255,204,0)">
      <circle r="15" clip-path="url(#clipPath2)" cx="241.4" cy="246.325" stroke="none"/>
    </g>
    <g text-rendering="geometricPrecision" stroke-miterlimit="1.45" shape-rendering="geometricPrecision" transform="matrix(1,0,0,1,-100,-102)" stroke-linecap="butt">
      <circle fill="none" r="15" clip-path="url(#clipPath2)" cx="241.4" cy="246.325"/>
      <text x="237.398" xml:space="preserve" y="251.0389" clip-path="url(#clipPath2)" font-family="sans-serif" stroke="none">E</text>
      <path fill="none" d="M116.3888 156.25 L138.4109 156.25" clip-path="url(#clipPath2)"/>
      <path d="M146.4109 156.25 L134.4109 151.25 L137.4109 156.25 L134.4109 161.25 Z" clip-path="url(#clipPath2)" stroke="none"/>
      <path fill="none" d="M333.1 128.3474 L333.1 141.2789" clip-path="url(#clipPath2)"/>
      <path d="M333.1 120.3474 L328.1 132.3474 L333.1 129.3474 L338.1 132.3474 Z" clip-path="url(#clipPath2)" stroke="none"/>
      <path fill="none" d="M176.4 156.25 L218.4 156.25" clip-path="url(#clipPath2)"/>
      <path d="M226.4 156.25 L214.4 151.25 L217.4 156.25 L214.4 161.25 Z" clip-path="url(#clipPath2)" stroke="none"/>
      <text x="193.5276" xml:space="preserve" y="148.9799" clip-path="url(#clipPath2)" font-family="sans-serif" stroke="none">0</text>
      <path fill="none" d="M256.4 156.25 L310.1 156.25" clip-path="url(#clipPath2)"/>
      <path d="M318.1 156.25 L306.1 151.25 L309.1 156.25 L306.1 161.25 Z" clip-path="url(#clipPath2)" stroke="none"/>
      <text x="275.4818" xml:space="preserve" y="150.4199" clip-path="url(#clipPath2)" font-family="sans-serif" stroke="none">1</text>
      <path fill="none" d="M161.4 171.25 L161.4 199.6052" clip-path="url(#clipPath2)"/>
      <path d="M161.4 207.6052 L166.4 195.6052 L161.4 198.6052 L156.4 195.6052 Z" clip-path="url(#clipPath2)" stroke="none"/>
      <text x="167.0808" xml:space="preserve" y="193.8621" clip-path="url(#clipPath2)" font-family="sans-serif" stroke="none">1</text>
      <path fill="none" d="M152.0161 210.9088 L148.9584 206.0164 L145.848 197.722 L144.8112 189.4276 L145.848 181.1332 L148.1638 174.9578 L148.2168 174.873" clip-path="url(#clipPath2)"/>
      <path d="M152.0641 167.8589 L141.9093 175.9754 L147.7358 175.7498 L150.6769 180.7847 Z" clip-path="url(#clipPath2)" stroke="none"/>
      <text x="129.8357" xml:space="preserve" y="193.8943" clip-path="url(#clipPath2)" font-family="sans-serif" stroke="none">0</text>
      <path fill="none" d="M171.1641 211.2328 L174.6313 206.0164 L177.9392 197.722 L179.0418 189.4276 L177.9392 181.1332 L175.2855 174.4791 L175.2301 174.3958" clip-path="url(#clipPath2)"/>
      <path d="M171.1127 167.5368 L173.0019 180.3988 L175.7448 175.2532 L181.5758 175.252 Z" clip-path="url(#clipPath2)" stroke="none"/>
      <text x="189.8916" xml:space="preserve" y="190.2658" clip-path="url(#clipPath2)" font-family="sans-serif" stroke="none">1</text>
      <path fill="none" d="M345.3176 164.9326 L356.0893 174.0711 L365.9933 184.1561 L374.837 195.024 L382.6203 206.6748 L389.3433 219.1086 L391.7557 224.7395" clip-path="url(#clipPath2)"/>
      <path d="M394.9063 232.093 L394.7764 219.0937 L391.3619 223.8203 L385.5845 223.0318 Z" clip-path="url(#clipPath2)" stroke="none"/>
      <text x="345.3706" xml:space="preserve" y="215.8562" clip-path="url(#clipPath2)" font-family="sans-serif" stroke="none">0</text>
      <path fill="none" d="M390.6981 234.2579 L346.7618 174.7528" clip-path="url(#clipPath2)"/>
      <path d="M342.0099 168.3171 L345.1154 180.9407 L347.3558 175.5573 L353.1601 175.0007 Z" clip-path="url(#clipPath2)" stroke="none"/>
      <text x="393.436" xml:space="preserve" y="184.9186" clip-path="url(#clipPath2)" font-family="sans-serif" stroke="none">0</text>
      <path fill="none" d="M241.4 270.6445 L241.4 261.317" clip-path="url(#clipPath2)"/>
      <path d="M241.4 278.6445 L246.4 266.6445 L241.4 269.6445 L236.4 266.6445 Z" clip-path="url(#clipPath2)" stroke="none"/>
      <path fill="none" d="M241.4 171.25 L241.4 223.325" clip-path="url(#clipPath2)"/>
      <path d="M241.4 231.325 L246.4 219.325 L241.4 222.325 L236.4 219.325 Z" clip-path="url(#clipPath2)" stroke="none"/>
      <text x="228.0311" xml:space="preserve" y="197.5944" clip-path="url(#clipPath2)" font-family="sans-serif" stroke="none">0</text>
      <path fill="none" d="M384.608 246.325 L264.4 246.325" clip-path="url(#clipPath2)"/>
      <path d="M256.4 246.325 L268.4 251.325 L265.4 246.325 L268.4 241.325 Z" clip-path="url(#clipPath2)" stroke="none"/>
      <text x="319.709" xml:space="preserve" y="236.7675" clip-path="url(#clipPath2)" font-family="sans-serif" stroke="none">1</text>
      <path fill="none" d="M323.3647 167.7004 L312.2008 180.8311 L289.951 204.0373 L266.3508 225.8686 L259.2091 231.7238" clip-path="url(#clipPath2)"/>
      <path d="M253.0226 236.796 L265.4725 233.0543 L259.9824 231.0898 L259.1323 225.3212 Z" clip-path="url(#clipPath2)" stroke="none"/>
      <text x="300.8301" xml:space="preserve" y="208.6511" clip-path="url(#clipPath2)" font-family="sans-serif" stroke="none">1</text>
      <path fill="none" d="M255.4981 251.4938 L261.176 253.5754 L280.952 258.7543 L300.728 261.8616 L320.504 262.8974 L340.28 261.8616 L360.056 258.7543 L377.9366 254.0718 L378.0305 254.0374" clip-path="url(#clipPath2)"/>
      <path d="M385.6046 251.4616 L372.6337 250.5915 L377.0838 254.3593 L375.8534 260.059 Z" clip-path="url(#clipPath2)" stroke="none"/>
      <text x="321.1737" xml:space="preserve" y="281.2452" clip-path="url(#clipPath2)" font-family="sans-serif" stroke="none">0</text>
      <path fill="none" d="M249.1358 233.466 L249.9544 232.1051 L259.3398 218.7311 L269.5559 206.2029 L280.603 194.5206 L292.4809 183.6841 L305.1898 173.6936 L313.4134 168.1393 L313.5 168.0893" clip-path="url(#clipPath2)"/>
      <path d="M320.1882 163.6998 L307.4124 166.1039 L312.6639 168.638 L312.8993 174.4642 Z" clip-path="url(#clipPath2)" stroke="none"/>
      <text x="269.3043" xml:space="preserve" y="188.1345" clip-path="url(#clipPath2)" font-family="sans-serif" stroke="none">1</text>
    </g>
  </g>
</svg>
