<?xml version="1.0" encoding="UTF-8"?><svg xmlns="http://www.w3.org/2000/svg" xmlns:xlink="http://www.w3.org/1999/xlink" fill-opacity="1" color-rendering="auto" color-interpolation="auto" text-rendering="auto" stroke="black" stroke-linecap="square" width="293" stroke-miterlimit="10" shape-rendering="auto" stroke-opacity="1" fill="black" stroke-dasharray="none" font-weight="normal" stroke-width="1" height="134" font-family="'Dialog'" font-style="normal" stroke-linejoin="miter" font-size="12px" stroke-dashoffset="0" image-rendering="auto">
  <!--Generated by ySVG 2.6-->
  <defs id="genericDefs"/>
  <g>
    <defs id="defs1">
      <clipPath clipPathUnits="userSpaceOnUse" id="clipPath1">
        <path d="M0 0 L293 0 L293 134 L0 134 L0 0 Z"/>
      </clipPath>
      <clipPath clipPathUnits="userSpaceOnUse" id="clipPath2">
        <path d="M100 119 L393 119 L393 253 L100 253 L100 119 Z"/>
      </clipPath>
    </defs>
    <g fill="white" text-rendering="geometricPrecision" shape-rendering="geometricPrecision" transform="translate(-100,-119)" stroke="white">
      <rect x="100" width="293" height="134" y="119" clip-path="url(#clipPath2)" stroke="none"/>
    </g>
    <g fill="rgb(255,204,0)" text-rendering="geometricPrecision" shape-rendering="geometricPrecision" transform="matrix(1,0,0,1,-100,-119)" stroke="rgb(255,204,0)">
      <circle r="15" clip-path="url(#clipPath2)" cx="161.4" cy="156.25" stroke="none"/>
    </g>
    <g text-rendering="geometricPrecision" stroke-miterlimit="1.45" shape-rendering="geometricPrecision" transform="matrix(1,0,0,1,-100,-119)" stroke-linecap="butt">
      <circle fill="none" r="15" clip-path="url(#clipPath2)" cx="161.4" cy="156.25"/>
      <text x="157.398" xml:space="preserve" y="160.9639" clip-path="url(#clipPath2)" font-family="sans-serif" stroke="none">A</text>
    </g>
    <g fill="rgb(255,204,0)" text-rendering="geometricPrecision" shape-rendering="geometricPrecision" transform="matrix(1,0,0,1,-100,-119)" stroke="rgb(255,204,0)">
      <circle r="0.5" clip-path="url(#clipPath2)" cx="115.9" cy="156.25" stroke="none"/>
    </g>
    <g text-rendering="geometricPrecision" stroke-miterlimit="1.45" shape-rendering="geometricPrecision" transform="matrix(1,0,0,1,-100,-119)" stroke-linecap="butt">
      <circle fill="none" r="0.5" clip-path="url(#clipPath2)" cx="115.9" cy="156.25"/>
    </g>
    <g fill="rgb(255,204,0)" text-rendering="geometricPrecision" shape-rendering="geometricPrecision" transform="matrix(1,0,0,1,-100,-119)" stroke="rgb(255,204,0)">
      <circle r="0.5" clip-path="url(#clipPath2)" cx="355.116" cy="156.25" stroke="none"/>
    </g>
    <g text-rendering="geometricPrecision" stroke-miterlimit="1.45" shape-rendering="geometricPrecision" transform="matrix(1,0,0,1,-100,-119)" stroke-linecap="butt">
      <circle fill="none" r="0.5" clip-path="url(#clipPath2)" cx="355.116" cy="156.25"/>
    </g>
    <g fill="rgb(255,204,0)" text-rendering="geometricPrecision" shape-rendering="geometricPrecision" transform="matrix(1,0,0,1,-100,-119)" stroke="rgb(255,204,0)">
      <circle r="15" clip-path="url(#clipPath2)" cx="321.836" cy="156.25" stroke="none"/>
    </g>
    <g text-rendering="geometricPrecision" stroke-miterlimit="1.45" shape-rendering="geometricPrecision" transform="matrix(1,0,0,1,-100,-119)" stroke-linecap="butt">
      <circle fill="none" r="15" clip-path="url(#clipPath2)" cx="321.836" cy="156.25"/>
      <text x="318.171" xml:space="preserve" y="160.9639" clip-path="url(#clipPath2)" font-family="sans-serif" stroke="none">F</text>
    </g>
    <g fill="rgb(255,204,0)" text-rendering="geometricPrecision" shape-rendering="geometricPrecision" transform="matrix(1,0,0,1,-100,-119)" stroke="rgb(255,204,0)">
      <circle r="15" clip-path="url(#clipPath2)" cx="161.4" cy="222.6052" stroke="none"/>
    </g>
    <g text-rendering="geometricPrecision" stroke-miterlimit="1.45" shape-rendering="geometricPrecision" transform="matrix(1,0,0,1,-100,-119)" stroke-linecap="butt">
      <circle fill="none" r="15" clip-path="url(#clipPath2)" cx="161.4" cy="222.6052"/>
      <text x="157.067" xml:space="preserve" y="227.3191" clip-path="url(#clipPath2)" font-family="sans-serif" stroke="none">C</text>
    </g>
    <g fill="rgb(255,204,0)" text-rendering="geometricPrecision" shape-rendering="geometricPrecision" transform="matrix(1,0,0,1,-100,-119)" stroke="rgb(255,204,0)">
      <circle r="15" clip-path="url(#clipPath2)" cx="231.672" cy="156.25" stroke="none"/>
    </g>
    <g text-rendering="geometricPrecision" stroke-miterlimit="1.45" shape-rendering="geometricPrecision" transform="matrix(1,0,0,1,-100,-119)" stroke-linecap="butt">
      <circle fill="none" r="15" clip-path="url(#clipPath2)" cx="231.672" cy="156.25"/>
      <text x="227.339" xml:space="preserve" y="160.9639" clip-path="url(#clipPath2)" font-family="sans-serif" stroke="none">D</text>
      <path fill="none" d="M116.3888 156.25 L138.4109 156.25" clip-path="url(#clipPath2)"/>
      <path d="M146.4109 156.25 L134.4109 151.25 L137.4109 156.25 L134.4109 161.25 Z" clip-path="url(#clipPath2)" stroke="none"/>
      <path fill="none" d="M346.6285 156.25 L336.8552 156.25" clip-path="url(#clipPath2)"/>
      <path d="M354.6285 156.25 L342.6285 151.25 L345.6285 156.25 L342.6285 161.25 Z" clip-path="url(#clipPath2)" stroke="none"/>
      <path fill="none" d="M329.0223 169.4468 L332.3186 175.5 L334.084 179.1914 L335.0917 182.3906 L335.3418 185.0977 L334.8343 187.3125 L333.5692 189.0352 L331.5464 190.2656 L328.766 191.0039 L325.228 191.25 L321.7464 191.25 L318.1852 191.0039 L315.3352 190.2656 L313.1964 189.0352 L311.7687 187.3125 L311.0522 185.0977 L311.0469 182.3906 L311.7527 179.1914 L312.5037 177.2352 L312.5447 177.1441" clip-path="url(#clipPath2)"/>
      <path d="M315.7316 169.8062 L306.3651 178.8211 L312.1463 178.0613 L315.5374 182.8048 Z" clip-path="url(#clipPath2)" stroke="none"/>
      <text x="318.9378" xml:space="preserve" y="204.9751" clip-path="url(#clipPath2)" font-family="sans-serif" stroke="none">1</text>
      <path fill="none" d="M161.4 171.25 L161.4 199.6052" clip-path="url(#clipPath2)"/>
      <path d="M161.4 207.6052 L166.4 195.6052 L161.4 198.6052 L156.4 195.6052 Z" clip-path="url(#clipPath2)" stroke="none"/>
      <text x="167.0808" xml:space="preserve" y="193.8621" clip-path="url(#clipPath2)" font-family="sans-serif" stroke="none">1</text>
      <path fill="none" d="M152.0161 210.9088 L148.9584 206.0164 L145.848 197.722 L144.8112 189.4276 L145.848 181.1332 L148.1638 174.9578 L148.2168 174.873" clip-path="url(#clipPath2)"/>
      <path d="M152.0641 167.8589 L141.9093 175.9754 L147.7358 175.7498 L150.6769 180.7847 Z" clip-path="url(#clipPath2)" stroke="none"/>
      <text x="129.8357" xml:space="preserve" y="193.8943" clip-path="url(#clipPath2)" font-family="sans-serif" stroke="none">0</text>
      <path fill="none" d="M171.1641 211.2328 L174.6313 206.0164 L177.9392 197.722 L179.0418 189.4276 L177.9392 181.1332 L175.2855 174.4791 L175.2301 174.3958" clip-path="url(#clipPath2)"/>
      <path d="M171.1127 167.5368 L173.0019 180.3988 L175.7448 175.2532 L181.5758 175.252 Z" clip-path="url(#clipPath2)" stroke="none"/>
      <text x="189.8916" xml:space="preserve" y="190.2658" clip-path="url(#clipPath2)" font-family="sans-serif" stroke="none">1</text>
      <path fill="none" d="M307.5277 160.6802 L299.295 162.6185 L288.0245 164.2107 L276.754 164.7414 L265.4835 164.2107 L254.213 162.6185 L253.7673 162.5136" clip-path="url(#clipPath2)"/>
      <path d="M245.9803 160.6802 L256.515 168.2972 L254.7407 162.7428 L258.8068 158.5634 Z" clip-path="url(#clipPath2)" stroke="none"/>
      <text x="272.0852" xml:space="preserve" y="150.0399" clip-path="url(#clipPath2)" font-family="sans-serif" stroke="none">0</text>
      <path fill="none" d="M176.4 156.25 L208.672 156.25" clip-path="url(#clipPath2)"/>
      <path d="M216.672 156.25 L204.672 151.25 L207.672 156.25 L204.672 161.25 Z" clip-path="url(#clipPath2)" stroke="none"/>
      <text x="190.1681" xml:space="preserve" y="148.9799" clip-path="url(#clipPath2)" font-family="sans-serif" stroke="none">0</text>
      <path fill="none" d="M246.672 156.25 L298.836 156.25" clip-path="url(#clipPath2)"/>
      <path d="M306.836 156.25 L294.836 151.25 L297.836 156.25 L294.836 161.25 Z" clip-path="url(#clipPath2)" stroke="none"/>
      <text x="271.7957" xml:space="preserve" y="180.55" clip-path="url(#clipPath2)" font-family="sans-serif" stroke="none">0</text>
      <path fill="none" d="M240.4991 168.3364 L242.9425 171.682 L254.213 182.7048 L265.4835 189.3185 L271.1187 190.972 L276.754 191.5231 L282.3893 190.972 L288.0245 189.3185 L299.295 182.7048 L307.7883 174.3981 L307.8473 174.3174" clip-path="url(#clipPath2)"/>
      <path d="M313.074 168.2609 L301.4486 174.0789 L307.1939 175.0745 L309.0192 180.6124 Z" clip-path="url(#clipPath2)" stroke="none"/>
      <text x="269.9618" xml:space="preserve" y="208.704" clip-path="url(#clipPath2)" font-family="sans-serif" stroke="none">1</text>
    </g>
  </g>
</svg>
