<?xml version="1.0" encoding="UTF-8"?><svg xmlns="http://www.w3.org/2000/svg" xmlns:xlink="http://www.w3.org/1999/xlink" fill-opacity="1" color-rendering="auto" color-interpolation="auto" text-rendering="auto" stroke="black" stroke-linecap="square" width="798" stroke-miterlimit="10" shape-rendering="auto" stroke-opacity="1" fill="black" stroke-dasharray="none" font-weight="normal" stroke-width="1" height="269" font-family="'Dialog'" font-style="normal" stroke-linejoin="miter" font-size="12px" stroke-dashoffset="0" image-rendering="auto">
  <!--Generated by ySVG 2.6-->
  <defs id="genericDefs"/>
  <g>
    <defs id="defs1">
      <clipPath clipPathUnits="userSpaceOnUse" id="clipPath1">
        <path d="M0 0 L798 0 L798 269 L0 269 L0 0 Z"/>
      </clipPath>
      <clipPath clipPathUnits="userSpaceOnUse" id="clipPath2">
        <path d="M50 33 L848 33 L848 302 L50 302 L50 33 Z"/>
      </clipPath>
    </defs>
    <g fill="white" text-rendering="geometricPrecision" shape-rendering="geometricPrecision" transform="translate(-50,-33)" stroke="white">
      <rect x="50" width="798" height="269" y="33" clip-path="url(#clipPath2)" stroke="none"/>
    </g>
    <g fill="rgb(255,204,0)" text-rendering="geometricPrecision" shape-rendering="geometricPrecision" transform="matrix(1,0,0,1,-50,-33)" stroke="rgb(255,204,0)">
      <circle r="15" clip-path="url(#clipPath2)" cx="171" cy="168.125" stroke="none"/>
    </g>
    <g text-rendering="geometricPrecision" stroke-miterlimit="1.45" shape-rendering="geometricPrecision" transform="matrix(1,0,0,1,-50,-33)" stroke-linecap="butt">
      <circle fill="none" r="15" clip-path="url(#clipPath2)" cx="171" cy="168.125"/>
    </g>
    <g fill="rgb(255,204,0)" text-rendering="geometricPrecision" shape-rendering="geometricPrecision" transform="matrix(1,0,0,1,-50,-33)" stroke="rgb(255,204,0)">
      <circle r="15" clip-path="url(#clipPath2)" cx="231" cy="101" stroke="none"/>
    </g>
    <g text-rendering="geometricPrecision" stroke-miterlimit="1.45" shape-rendering="geometricPrecision" transform="matrix(1,0,0,1,-50,-33)" stroke-linecap="butt">
      <circle fill="none" r="15" clip-path="url(#clipPath2)" cx="231" cy="101"/>
    </g>
    <g fill="rgb(255,204,0)" text-rendering="geometricPrecision" shape-rendering="geometricPrecision" transform="matrix(1,0,0,1,-50,-33)" stroke="rgb(255,204,0)">
      <circle r="15" clip-path="url(#clipPath2)" cx="231" cy="145.75" stroke="none"/>
    </g>
    <g text-rendering="geometricPrecision" stroke-miterlimit="1.45" shape-rendering="geometricPrecision" transform="matrix(1,0,0,1,-50,-33)" stroke-linecap="butt">
      <circle fill="none" r="15" clip-path="url(#clipPath2)" cx="231" cy="145.75"/>
    </g>
    <g fill="rgb(255,204,0)" text-rendering="geometricPrecision" shape-rendering="geometricPrecision" transform="matrix(1,0,0,1,-50,-33)" stroke="rgb(255,204,0)">
      <circle r="15" clip-path="url(#clipPath2)" cx="231" cy="190.5" stroke="none"/>
    </g>
    <g text-rendering="geometricPrecision" stroke-miterlimit="1.45" shape-rendering="geometricPrecision" transform="matrix(1,0,0,1,-50,-33)" stroke-linecap="butt">
      <circle fill="none" r="15" clip-path="url(#clipPath2)" cx="231" cy="190.5"/>
    </g>
    <g fill="rgb(255,204,0)" text-rendering="geometricPrecision" shape-rendering="geometricPrecision" transform="matrix(1,0,0,1,-50,-33)" stroke="rgb(255,204,0)">
      <circle r="15" clip-path="url(#clipPath2)" cx="231" cy="235.25" stroke="none"/>
    </g>
    <g text-rendering="geometricPrecision" stroke-miterlimit="1.45" shape-rendering="geometricPrecision" transform="matrix(1,0,0,1,-50,-33)" stroke-linecap="butt">
      <circle fill="none" r="15" clip-path="url(#clipPath2)" cx="231" cy="235.25"/>
    </g>
    <g fill="rgb(255,204,0)" text-rendering="geometricPrecision" shape-rendering="geometricPrecision" transform="matrix(1,0,0,1,-50,-33)" stroke="rgb(255,204,0)">
      <circle r="15" clip-path="url(#clipPath2)" cx="291" cy="101" stroke="none"/>
    </g>
    <g text-rendering="geometricPrecision" stroke-miterlimit="1.45" shape-rendering="geometricPrecision" transform="matrix(1,0,0,1,-50,-33)" stroke-linecap="butt">
      <circle fill="none" r="15" clip-path="url(#clipPath2)" cx="291" cy="101"/>
    </g>
    <g fill="rgb(255,204,0)" text-rendering="geometricPrecision" shape-rendering="geometricPrecision" transform="matrix(1,0,0,1,-50,-33)" stroke="rgb(255,204,0)">
      <circle r="15" clip-path="url(#clipPath2)" cx="291" cy="145.75" stroke="none"/>
    </g>
    <g text-rendering="geometricPrecision" stroke-miterlimit="1.45" shape-rendering="geometricPrecision" transform="matrix(1,0,0,1,-50,-33)" stroke-linecap="butt">
      <circle fill="none" r="15" clip-path="url(#clipPath2)" cx="291" cy="145.75"/>
    </g>
    <g fill="rgb(255,204,0)" text-rendering="geometricPrecision" shape-rendering="geometricPrecision" transform="matrix(1,0,0,1,-50,-33)" stroke="rgb(255,204,0)">
      <circle r="15" clip-path="url(#clipPath2)" cx="291" cy="190.5" stroke="none"/>
    </g>
    <g text-rendering="geometricPrecision" stroke-miterlimit="1.45" shape-rendering="geometricPrecision" transform="matrix(1,0,0,1,-50,-33)" stroke-linecap="butt">
      <circle fill="none" r="15" clip-path="url(#clipPath2)" cx="291" cy="190.5"/>
    </g>
    <g fill="rgb(255,204,0)" text-rendering="geometricPrecision" shape-rendering="geometricPrecision" transform="matrix(1,0,0,1,-50,-33)" stroke="rgb(255,204,0)">
      <circle r="15" clip-path="url(#clipPath2)" cx="291" cy="235.25" stroke="none"/>
    </g>
    <g text-rendering="geometricPrecision" stroke-miterlimit="1.45" shape-rendering="geometricPrecision" transform="matrix(1,0,0,1,-50,-33)" stroke-linecap="butt">
      <circle fill="none" r="15" clip-path="url(#clipPath2)" cx="291" cy="235.25"/>
    </g>
    <g fill="rgb(255,204,0)" text-rendering="geometricPrecision" shape-rendering="geometricPrecision" transform="matrix(1,0,0,1,-50,-33)" stroke="rgb(255,204,0)">
      <circle r="15" clip-path="url(#clipPath2)" cx="351" cy="101" stroke="none"/>
    </g>
    <g text-rendering="geometricPrecision" stroke-miterlimit="1.45" shape-rendering="geometricPrecision" transform="matrix(1,0,0,1,-50,-33)" stroke-linecap="butt">
      <circle fill="none" r="15" clip-path="url(#clipPath2)" cx="351" cy="101"/>
    </g>
    <g fill="rgb(255,204,0)" text-rendering="geometricPrecision" shape-rendering="geometricPrecision" transform="matrix(1,0,0,1,-50,-33)" stroke="rgb(255,204,0)">
      <circle r="15" clip-path="url(#clipPath2)" cx="351" cy="145.75" stroke="none"/>
    </g>
    <g text-rendering="geometricPrecision" stroke-miterlimit="1.45" shape-rendering="geometricPrecision" transform="matrix(1,0,0,1,-50,-33)" stroke-linecap="butt">
      <circle fill="none" r="15" clip-path="url(#clipPath2)" cx="351" cy="145.75"/>
    </g>
    <g fill="rgb(255,204,0)" text-rendering="geometricPrecision" shape-rendering="geometricPrecision" transform="matrix(1,0,0,1,-50,-33)" stroke="rgb(255,204,0)">
      <circle r="15" clip-path="url(#clipPath2)" cx="351" cy="190.5" stroke="none"/>
    </g>
    <g text-rendering="geometricPrecision" stroke-miterlimit="1.45" shape-rendering="geometricPrecision" transform="matrix(1,0,0,1,-50,-33)" stroke-linecap="butt">
      <circle fill="none" r="15" clip-path="url(#clipPath2)" cx="351" cy="190.5"/>
    </g>
    <g fill="rgb(255,204,0)" text-rendering="geometricPrecision" shape-rendering="geometricPrecision" transform="matrix(1,0,0,1,-50,-33)" stroke="rgb(255,204,0)">
      <circle r="15" clip-path="url(#clipPath2)" cx="351" cy="235.25" stroke="none"/>
    </g>
    <g text-rendering="geometricPrecision" stroke-miterlimit="1.45" shape-rendering="geometricPrecision" transform="matrix(1,0,0,1,-50,-33)" stroke-linecap="butt">
      <circle fill="none" r="15" clip-path="url(#clipPath2)" cx="351" cy="235.25"/>
    </g>
    <g fill="rgb(255,204,0)" text-rendering="geometricPrecision" shape-rendering="geometricPrecision" transform="matrix(1,0,0,1,-50,-33)" stroke="rgb(255,204,0)">
      <circle r="15" clip-path="url(#clipPath2)" cx="411" cy="168.125" stroke="none"/>
    </g>
    <g text-rendering="geometricPrecision" stroke-miterlimit="1.45" shape-rendering="geometricPrecision" transform="matrix(1,0,0,1,-50,-33)" stroke-linecap="butt">
      <circle fill="none" r="15" clip-path="url(#clipPath2)" cx="411" cy="168.125"/>
    </g>
    <g fill="rgb(255,204,0)" text-rendering="geometricPrecision" shape-rendering="geometricPrecision" transform="matrix(1,0,0,1,-50,-33)" stroke="rgb(255,204,0)">
      <circle r="15" clip-path="url(#clipPath2)" cx="471" cy="168.125" stroke="none"/>
    </g>
    <g text-rendering="geometricPrecision" stroke-miterlimit="1.45" shape-rendering="geometricPrecision" transform="matrix(1,0,0,1,-50,-33)" stroke-linecap="butt">
      <circle fill="none" r="15" clip-path="url(#clipPath2)" cx="471" cy="168.125"/>
    </g>
    <g fill="rgb(255,204,0)" text-rendering="geometricPrecision" shape-rendering="geometricPrecision" transform="matrix(1,0,0,1,-50,-33)" stroke="rgb(255,204,0)">
      <circle r="15" clip-path="url(#clipPath2)" cx="531" cy="101" stroke="none"/>
    </g>
    <g text-rendering="geometricPrecision" stroke-miterlimit="1.45" shape-rendering="geometricPrecision" transform="matrix(1,0,0,1,-50,-33)" stroke-linecap="butt">
      <circle fill="none" r="15" clip-path="url(#clipPath2)" cx="531" cy="101"/>
    </g>
    <g fill="rgb(255,204,0)" text-rendering="geometricPrecision" shape-rendering="geometricPrecision" transform="matrix(1,0,0,1,-50,-33)" stroke="rgb(255,204,0)">
      <circle r="15" clip-path="url(#clipPath2)" cx="531" cy="145.75" stroke="none"/>
    </g>
    <g text-rendering="geometricPrecision" stroke-miterlimit="1.45" shape-rendering="geometricPrecision" transform="matrix(1,0,0,1,-50,-33)" stroke-linecap="butt">
      <circle fill="none" r="15" clip-path="url(#clipPath2)" cx="531" cy="145.75"/>
    </g>
    <g fill="rgb(255,204,0)" text-rendering="geometricPrecision" shape-rendering="geometricPrecision" transform="matrix(1,0,0,1,-50,-33)" stroke="rgb(255,204,0)">
      <circle r="15" clip-path="url(#clipPath2)" cx="531" cy="190.5" stroke="none"/>
    </g>
    <g text-rendering="geometricPrecision" stroke-miterlimit="1.45" shape-rendering="geometricPrecision" transform="matrix(1,0,0,1,-50,-33)" stroke-linecap="butt">
      <circle fill="none" r="15" clip-path="url(#clipPath2)" cx="531" cy="190.5"/>
    </g>
    <g fill="rgb(255,204,0)" text-rendering="geometricPrecision" shape-rendering="geometricPrecision" transform="matrix(1,0,0,1,-50,-33)" stroke="rgb(255,204,0)">
      <circle r="15" clip-path="url(#clipPath2)" cx="531" cy="235.25" stroke="none"/>
    </g>
    <g text-rendering="geometricPrecision" stroke-miterlimit="1.45" shape-rendering="geometricPrecision" transform="matrix(1,0,0,1,-50,-33)" stroke-linecap="butt">
      <circle fill="none" r="15" clip-path="url(#clipPath2)" cx="531" cy="235.25"/>
    </g>
    <g fill="rgb(255,204,0)" text-rendering="geometricPrecision" shape-rendering="geometricPrecision" transform="matrix(1,0,0,1,-50,-33)" stroke="rgb(255,204,0)">
      <circle r="15" clip-path="url(#clipPath2)" cx="591" cy="101" stroke="none"/>
    </g>
    <g text-rendering="geometricPrecision" stroke-miterlimit="1.45" shape-rendering="geometricPrecision" transform="matrix(1,0,0,1,-50,-33)" stroke-linecap="butt">
      <circle fill="none" r="15" clip-path="url(#clipPath2)" cx="591" cy="101"/>
    </g>
    <g fill="rgb(255,204,0)" text-rendering="geometricPrecision" shape-rendering="geometricPrecision" transform="matrix(1,0,0,1,-50,-33)" stroke="rgb(255,204,0)">
      <circle r="15" clip-path="url(#clipPath2)" cx="591" cy="145.75" stroke="none"/>
    </g>
    <g text-rendering="geometricPrecision" stroke-miterlimit="1.45" shape-rendering="geometricPrecision" transform="matrix(1,0,0,1,-50,-33)" stroke-linecap="butt">
      <circle fill="none" r="15" clip-path="url(#clipPath2)" cx="591" cy="145.75"/>
    </g>
    <g fill="rgb(255,204,0)" text-rendering="geometricPrecision" shape-rendering="geometricPrecision" transform="matrix(1,0,0,1,-50,-33)" stroke="rgb(255,204,0)">
      <circle r="15" clip-path="url(#clipPath2)" cx="591" cy="190.5" stroke="none"/>
    </g>
    <g text-rendering="geometricPrecision" stroke-miterlimit="1.45" shape-rendering="geometricPrecision" transform="matrix(1,0,0,1,-50,-33)" stroke-linecap="butt">
      <circle fill="none" r="15" clip-path="url(#clipPath2)" cx="591" cy="190.5"/>
    </g>
    <g fill="rgb(255,204,0)" text-rendering="geometricPrecision" shape-rendering="geometricPrecision" transform="matrix(1,0,0,1,-50,-33)" stroke="rgb(255,204,0)">
      <circle r="15" clip-path="url(#clipPath2)" cx="591" cy="235.25" stroke="none"/>
    </g>
    <g text-rendering="geometricPrecision" stroke-miterlimit="1.45" shape-rendering="geometricPrecision" transform="matrix(1,0,0,1,-50,-33)" stroke-linecap="butt">
      <circle fill="none" r="15" clip-path="url(#clipPath2)" cx="591" cy="235.25"/>
    </g>
    <g fill="rgb(255,204,0)" text-rendering="geometricPrecision" shape-rendering="geometricPrecision" transform="matrix(1,0,0,1,-50,-33)" stroke="rgb(255,204,0)">
      <circle r="15" clip-path="url(#clipPath2)" cx="651" cy="101" stroke="none"/>
    </g>
    <g text-rendering="geometricPrecision" stroke-miterlimit="1.45" shape-rendering="geometricPrecision" transform="matrix(1,0,0,1,-50,-33)" stroke-linecap="butt">
      <circle fill="none" r="15" clip-path="url(#clipPath2)" cx="651" cy="101"/>
    </g>
    <g fill="rgb(255,204,0)" text-rendering="geometricPrecision" shape-rendering="geometricPrecision" transform="matrix(1,0,0,1,-50,-33)" stroke="rgb(255,204,0)">
      <circle r="15" clip-path="url(#clipPath2)" cx="651" cy="145.75" stroke="none"/>
    </g>
    <g text-rendering="geometricPrecision" stroke-miterlimit="1.45" shape-rendering="geometricPrecision" transform="matrix(1,0,0,1,-50,-33)" stroke-linecap="butt">
      <circle fill="none" r="15" clip-path="url(#clipPath2)" cx="651" cy="145.75"/>
    </g>
    <g fill="rgb(255,204,0)" text-rendering="geometricPrecision" shape-rendering="geometricPrecision" transform="matrix(1,0,0,1,-50,-33)" stroke="rgb(255,204,0)">
      <circle r="15" clip-path="url(#clipPath2)" cx="651" cy="190.5" stroke="none"/>
    </g>
    <g text-rendering="geometricPrecision" stroke-miterlimit="1.45" shape-rendering="geometricPrecision" transform="matrix(1,0,0,1,-50,-33)" stroke-linecap="butt">
      <circle fill="none" r="15" clip-path="url(#clipPath2)" cx="651" cy="190.5"/>
    </g>
    <g fill="rgb(255,204,0)" text-rendering="geometricPrecision" shape-rendering="geometricPrecision" transform="matrix(1,0,0,1,-50,-33)" stroke="rgb(255,204,0)">
      <circle r="15" clip-path="url(#clipPath2)" cx="651" cy="235.25" stroke="none"/>
    </g>
    <g text-rendering="geometricPrecision" stroke-miterlimit="1.45" shape-rendering="geometricPrecision" transform="matrix(1,0,0,1,-50,-33)" stroke-linecap="butt">
      <circle fill="none" r="15" clip-path="url(#clipPath2)" cx="651" cy="235.25"/>
    </g>
    <g fill="rgb(255,204,0)" text-rendering="geometricPrecision" shape-rendering="geometricPrecision" transform="matrix(1,0,0,1,-50,-33)" stroke="rgb(255,204,0)">
      <circle r="15" clip-path="url(#clipPath2)" cx="711" cy="168.125" stroke="none"/>
    </g>
    <g text-rendering="geometricPrecision" stroke-miterlimit="1.45" shape-rendering="geometricPrecision" transform="matrix(1,0,0,1,-50,-33)" stroke-linecap="butt">
      <circle fill="none" r="15" clip-path="url(#clipPath2)" cx="711" cy="168.125"/>
    </g>
    <g fill="rgb(255,204,0)" text-rendering="geometricPrecision" shape-rendering="geometricPrecision" transform="matrix(1,0,0,1,-50,-33)" stroke="rgb(255,204,0)">
      <circle r="15" clip-path="url(#clipPath2)" cx="111" cy="168.125" stroke="none"/>
    </g>
    <g text-rendering="geometricPrecision" stroke-miterlimit="1.45" shape-rendering="geometricPrecision" transform="matrix(1,0,0,1,-50,-33)" stroke-linecap="butt">
      <circle fill="none" r="15" clip-path="url(#clipPath2)" cx="111" cy="168.125"/>
    </g>
    <g fill="rgb(255,204,0)" text-rendering="geometricPrecision" shape-rendering="geometricPrecision" transform="matrix(1,0,0,1,-50,-33)" stroke="rgb(255,204,0)">
      <circle r="0.5" clip-path="url(#clipPath2)" cx="65.5" cy="168.125" stroke="none"/>
    </g>
    <g text-rendering="geometricPrecision" stroke-miterlimit="1.45" shape-rendering="geometricPrecision" transform="matrix(1,0,0,1,-50,-33)" stroke-linecap="butt">
      <circle fill="none" r="0.5" clip-path="url(#clipPath2)" cx="65.5" cy="168.125"/>
    </g>
    <g fill="rgb(255,204,0)" text-rendering="geometricPrecision" shape-rendering="geometricPrecision" transform="matrix(1,0,0,1,-50,-33)" stroke="rgb(255,204,0)">
      <circle r="0.5" clip-path="url(#clipPath2)" cx="810.3" cy="168.125" stroke="none"/>
    </g>
    <g text-rendering="geometricPrecision" stroke-miterlimit="1.45" shape-rendering="geometricPrecision" transform="matrix(1,0,0,1,-50,-33)" stroke-linecap="butt">
      <circle fill="none" r="0.5" clip-path="url(#clipPath2)" cx="810.3" cy="168.125"/>
    </g>
    <g fill="rgb(255,204,0)" text-rendering="geometricPrecision" shape-rendering="geometricPrecision" transform="matrix(1,0,0,1,-50,-33)" stroke="rgb(255,204,0)">
      <circle r="15" clip-path="url(#clipPath2)" cx="764.8" cy="168.125" stroke="none"/>
    </g>
    <g text-rendering="geometricPrecision" stroke-miterlimit="1.45" shape-rendering="geometricPrecision" transform="matrix(1,0,0,1,-50,-33)" stroke-linecap="butt">
      <circle fill="none" r="15" clip-path="url(#clipPath2)" cx="764.8" cy="168.125"/>
      <path fill="none" d="M180.9964 156.9415 L215.6721 118.1481" clip-path="url(#clipPath2)"/>
      <path d="M221.0036 112.1835 L209.2786 117.7982 L215.0057 118.8936 L216.7342 124.4625 Z" clip-path="url(#clipPath2)" stroke="none"/>
      <text x="183.7725" xml:space="preserve" y="143.609" clip-path="url(#clipPath2)" font-family="sans-serif" stroke="none">e</text>
      <path fill="none" d="M185.0545 162.8838 L209.4497 153.7865" clip-path="url(#clipPath2)"/>
      <path d="M216.9455 150.9912 L203.9548 150.4993 L208.5127 154.1359 L207.4489 159.869 Z" clip-path="url(#clipPath2)" stroke="none"/>
      <text x="197.6631" xml:space="preserve" y="161.6514" clip-path="url(#clipPath2)" font-family="sans-serif" stroke="none">e</text>
      <path fill="none" d="M185.0545 173.3662 L209.4497 182.4635" clip-path="url(#clipPath2)"/>
      <path d="M216.9455 185.2588 L207.4489 176.381 L208.5127 182.1141 L203.9548 185.7507 Z" clip-path="url(#clipPath2)" stroke="none"/>
      <text x="193" xml:space="preserve" y="182.2874" clip-path="url(#clipPath2)" font-family="sans-serif" stroke="none">e</text>
      <path fill="none" d="M180.9964 179.3085 L215.6721 218.1019" clip-path="url(#clipPath2)"/>
      <path d="M221.0036 224.0665 L216.7343 211.7875 L215.0057 217.3564 L209.2786 218.4518 Z" clip-path="url(#clipPath2)" stroke="none"/>
      <text x="189.3088" xml:space="preserve" y="213.8422" clip-path="url(#clipPath2)" font-family="sans-serif" stroke="none">e</text>
      <path fill="none" d="M246 101 L268 101" clip-path="url(#clipPath2)"/>
      <path d="M276 101 L264 96 L267 101 L264 106 Z" clip-path="url(#clipPath2)" stroke="none"/>
      <text x="254.2222" xml:space="preserve" y="95.2388" clip-path="url(#clipPath2)" font-family="sans-serif" stroke="none">1</text>
      <path fill="none" d="M246 145.75 L268 145.75" clip-path="url(#clipPath2)"/>
      <path d="M276 145.75 L264 140.75 L267 145.75 L264 150.75 Z" clip-path="url(#clipPath2)" stroke="none"/>
      <text x="256.6748" xml:space="preserve" y="136.9439" clip-path="url(#clipPath2)" font-family="sans-serif" stroke="none">1</text>
      <path fill="none" d="M246 190.5 L268 190.5" clip-path="url(#clipPath2)"/>
      <path d="M276 190.5 L264 185.5 L267 190.5 L264 195.5 Z" clip-path="url(#clipPath2)" stroke="none"/>
      <text x="255.3354" xml:space="preserve" y="184.7388" clip-path="url(#clipPath2)" font-family="sans-serif" stroke="none">0</text>
      <path fill="none" d="M246 235.25 L268 235.25" clip-path="url(#clipPath2)"/>
      <path d="M276 235.25 L264 230.25 L267 235.25 L264 240.25 Z" clip-path="url(#clipPath2)" stroke="none"/>
      <text x="256.0703" xml:space="preserve" y="229.5159" clip-path="url(#clipPath2)" font-family="sans-serif" stroke="none">0</text>
      <path fill="none" d="M306 101 L328 101" clip-path="url(#clipPath2)"/>
      <path d="M336 101 L324 96 L327 101 L324 106 Z" clip-path="url(#clipPath2)" stroke="none"/>
      <text x="315.2055" xml:space="preserve" y="93.5251" clip-path="url(#clipPath2)" font-family="sans-serif" stroke="none">1</text>
      <path fill="none" d="M306 145.75 L328 145.75" clip-path="url(#clipPath2)"/>
      <path d="M336 145.75 L324 140.75 L327 145.75 L324 150.75 Z" clip-path="url(#clipPath2)" stroke="none"/>
      <text x="317.6631" xml:space="preserve" y="139.9135" clip-path="url(#clipPath2)" font-family="sans-serif" stroke="none">0</text>
      <path fill="none" d="M306 190.5 L328 190.5" clip-path="url(#clipPath2)"/>
      <path d="M336 190.5 L324 185.5 L327 190.5 L324 195.5 Z" clip-path="url(#clipPath2)" stroke="none"/>
      <text x="315.0417" xml:space="preserve" y="181.9256" clip-path="url(#clipPath2)" font-family="sans-serif" stroke="none">1</text>
      <path fill="none" d="M306 235.25 L328 235.25" clip-path="url(#clipPath2)"/>
      <path d="M336 235.25 L324 230.25 L327 235.25 L324 240.25 Z" clip-path="url(#clipPath2)" stroke="none"/>
      <text x="315.0417" xml:space="preserve" y="224.1196" clip-path="url(#clipPath2)" font-family="sans-serif" stroke="none">0</text>
      <path fill="none" d="M360.9964 112.1835 L395.6721 150.9769" clip-path="url(#clipPath2)"/>
      <path d="M401.0036 156.9415 L396.7343 144.6625 L395.0057 150.2314 L389.2786 151.3268 Z" clip-path="url(#clipPath2)" stroke="none"/>
      <text x="373" xml:space="preserve" y="134.0595" clip-path="url(#clipPath2)" font-family="sans-serif" stroke="none">e</text>
      <path fill="none" d="M365.0545 150.9912 L389.4497 160.0885" clip-path="url(#clipPath2)"/>
      <path d="M396.9455 162.8838 L387.4489 154.006 L388.5128 159.7391 L383.9548 163.3757 Z" clip-path="url(#clipPath2)" stroke="none"/>
      <text x="373" xml:space="preserve" y="159.9124" clip-path="url(#clipPath2)" font-family="sans-serif" stroke="none">e</text>
      <path fill="none" d="M365.0545 185.2588 L389.4497 176.1615" clip-path="url(#clipPath2)"/>
      <path d="M396.9455 173.3662 L383.9548 172.8743 L388.5128 176.5109 L387.4489 182.244 Z" clip-path="url(#clipPath2)" stroke="none"/>
      <text x="373" xml:space="preserve" y="185.7653" clip-path="url(#clipPath2)" font-family="sans-serif" stroke="none">e</text>
      <path fill="none" d="M360.9964 224.0665 L395.6721 185.2731" clip-path="url(#clipPath2)"/>
      <path d="M401.0036 179.3085 L389.2786 184.9232 L395.0057 186.0186 L396.7343 191.5875 Z" clip-path="url(#clipPath2)" stroke="none"/>
      <text x="373" xml:space="preserve" y="211.6182" clip-path="url(#clipPath2)" font-family="sans-serif" stroke="none">e</text>
      <path fill="none" d="M426 168.125 L448 168.125" clip-path="url(#clipPath2)"/>
      <path d="M456 168.125 L444 163.125 L447 168.125 L444 173.125 Z" clip-path="url(#clipPath2)" stroke="none"/>
      <text x="436.6145" xml:space="preserve" y="156.7325" clip-path="url(#clipPath2)" font-family="sans-serif" stroke="none">1</text>
      <path fill="none" d="M480.9964 156.9415 L515.6721 118.1481" clip-path="url(#clipPath2)"/>
      <path d="M521.0035 112.1835 L509.2786 117.7982 L515.0057 118.8936 L516.7343 124.4625 Z" clip-path="url(#clipPath2)" stroke="none"/>
      <text x="492.0944" xml:space="preserve" y="134.2988" clip-path="url(#clipPath2)" font-family="sans-serif" stroke="none">e</text>
      <path fill="none" d="M485.0545 162.8838 L509.4497 153.7865" clip-path="url(#clipPath2)"/>
      <path d="M516.9454 150.9912 L503.9547 150.4993 L508.5127 154.1359 L507.4489 159.869 Z" clip-path="url(#clipPath2)" stroke="none"/>
      <text x="497.6631" xml:space="preserve" y="161.6514" clip-path="url(#clipPath2)" font-family="sans-serif" stroke="none">e</text>
      <path fill="none" d="M485.0545 173.3662 L509.4497 182.4635" clip-path="url(#clipPath2)"/>
      <path d="M516.9454 185.2588 L507.4489 176.381 L508.5127 182.1141 L503.9547 185.7507 Z" clip-path="url(#clipPath2)" stroke="none"/>
      <text x="493" xml:space="preserve" y="182.2874" clip-path="url(#clipPath2)" font-family="sans-serif" stroke="none">e</text>
      <path fill="none" d="M480.9964 179.3085 L515.6721 218.1019" clip-path="url(#clipPath2)"/>
      <path d="M521.0035 224.0665 L516.7343 211.7875 L515.0057 217.3564 L509.2786 218.4518 Z" clip-path="url(#clipPath2)" stroke="none"/>
      <text x="489.3088" xml:space="preserve" y="213.8422" clip-path="url(#clipPath2)" font-family="sans-serif" stroke="none">e</text>
      <path fill="none" d="M546 101 L568 101" clip-path="url(#clipPath2)"/>
      <path d="M576 101 L564 96 L567 101 L564 106 Z" clip-path="url(#clipPath2)" stroke="none"/>
      <text x="554.2222" xml:space="preserve" y="95.2388" clip-path="url(#clipPath2)" font-family="sans-serif" stroke="none">1</text>
      <path fill="none" d="M546 145.75 L568 145.75" clip-path="url(#clipPath2)"/>
      <path d="M576 145.75 L564 140.75 L567 145.75 L564 150.75 Z" clip-path="url(#clipPath2)" stroke="none"/>
      <text x="556.6748" xml:space="preserve" y="136.9439" clip-path="url(#clipPath2)" font-family="sans-serif" stroke="none">1</text>
      <path fill="none" d="M546 190.5 L568 190.5" clip-path="url(#clipPath2)"/>
      <path d="M576 190.5 L564 185.5 L567 190.5 L564 195.5 Z" clip-path="url(#clipPath2)" stroke="none"/>
      <text x="555.3354" xml:space="preserve" y="184.7388" clip-path="url(#clipPath2)" font-family="sans-serif" stroke="none">0</text>
      <path fill="none" d="M546 235.25 L568 235.25" clip-path="url(#clipPath2)"/>
      <path d="M576 235.25 L564 230.25 L567 235.25 L564 240.25 Z" clip-path="url(#clipPath2)" stroke="none"/>
      <text x="556.0704" xml:space="preserve" y="229.5159" clip-path="url(#clipPath2)" font-family="sans-serif" stroke="none">0</text>
      <path fill="none" d="M606 101 L628 101" clip-path="url(#clipPath2)"/>
      <path d="M636 101 L624 96 L627 101 L624 106 Z" clip-path="url(#clipPath2)" stroke="none"/>
      <text x="615.2055" xml:space="preserve" y="93.5251" clip-path="url(#clipPath2)" font-family="sans-serif" stroke="none">1</text>
      <path fill="none" d="M606 145.75 L628 145.75" clip-path="url(#clipPath2)"/>
      <path d="M636 145.75 L624 140.75 L627 145.75 L624 150.75 Z" clip-path="url(#clipPath2)" stroke="none"/>
      <text x="617.6631" xml:space="preserve" y="139.9135" clip-path="url(#clipPath2)" font-family="sans-serif" stroke="none">0</text>
      <path fill="none" d="M606 190.5 L628 190.5" clip-path="url(#clipPath2)"/>
      <path d="M636 190.5 L624 185.5 L627 190.5 L624 195.5 Z" clip-path="url(#clipPath2)" stroke="none"/>
      <text x="615.0416" xml:space="preserve" y="181.9256" clip-path="url(#clipPath2)" font-family="sans-serif" stroke="none">1</text>
      <path fill="none" d="M606 235.25 L628 235.25" clip-path="url(#clipPath2)"/>
      <path d="M636 235.25 L624 230.25 L627 235.25 L624 240.25 Z" clip-path="url(#clipPath2)" stroke="none"/>
      <text x="615.0416" xml:space="preserve" y="224.1196" clip-path="url(#clipPath2)" font-family="sans-serif" stroke="none">0</text>
      <path fill="none" d="M660.9965 112.1835 L695.6721 150.9769" clip-path="url(#clipPath2)"/>
      <path d="M701.0035 156.9415 L696.7343 144.6625 L695.0057 150.2314 L689.2786 151.3268 Z" clip-path="url(#clipPath2)" stroke="none"/>
      <text x="673" xml:space="preserve" y="134.0595" clip-path="url(#clipPath2)" font-family="sans-serif" stroke="none">e</text>
      <path fill="none" d="M665.0546 150.9912 L689.4497 160.0885" clip-path="url(#clipPath2)"/>
      <path d="M696.9454 162.8838 L687.4489 154.006 L688.5127 159.7391 L683.9548 163.3757 Z" clip-path="url(#clipPath2)" stroke="none"/>
      <text x="673" xml:space="preserve" y="159.9124" clip-path="url(#clipPath2)" font-family="sans-serif" stroke="none">e</text>
      <path fill="none" d="M665.0546 185.2588 L689.4497 176.1615" clip-path="url(#clipPath2)"/>
      <path d="M696.9454 173.3662 L683.9548 172.8743 L688.5127 176.5109 L687.4489 182.244 Z" clip-path="url(#clipPath2)" stroke="none"/>
      <text x="673" xml:space="preserve" y="185.7653" clip-path="url(#clipPath2)" font-family="sans-serif" stroke="none">e</text>
      <path fill="none" d="M660.9965 224.0665 L695.6721 185.2731" clip-path="url(#clipPath2)"/>
      <path d="M701.0035 179.3085 L689.2786 184.9232 L695.0057 186.0186 L696.7343 191.5875 Z" clip-path="url(#clipPath2)" stroke="none"/>
      <text x="673" xml:space="preserve" y="211.6182" clip-path="url(#clipPath2)" font-family="sans-serif" stroke="none">e</text>
      <path fill="none" d="M711 183.125 L711 286.375 L171 286.375 L171 191.125" clip-path="url(#clipPath2)"/>
      <path d="M171 183.125 L166 195.125 L171 192.125 L176 195.125 Z" clip-path="url(#clipPath2)" stroke="none"/>
      <text x="437.6631" xml:space="preserve" y="261.0889" clip-path="url(#clipPath2)" font-family="sans-serif" stroke="none">e</text>
      <path fill="none" d="M126 168.125 L148 168.125" clip-path="url(#clipPath2)"/>
      <path d="M156 168.125 L144 163.125 L147 168.125 L144 173.125 Z" clip-path="url(#clipPath2)" stroke="none"/>
      <text x="137.6631" xml:space="preserve" y="142.8389" clip-path="url(#clipPath2)" font-family="sans-serif" stroke="none">e</text>
      <path fill="none" d="M66 168.125 L88 168.125" clip-path="url(#clipPath2)"/>
      <path d="M96 168.125 L84 163.125 L87 168.125 L84 173.125 Z" clip-path="url(#clipPath2)" stroke="none"/>
      <path fill="none" d="M801.8112 168.125 L779.7891 168.125" clip-path="url(#clipPath2)"/>
      <path d="M809.8112 168.125 L797.8112 163.125 L800.8112 168.125 L797.8112 173.125 Z" clip-path="url(#clipPath2)" stroke="none"/>
      <path fill="none" d="M726 168.125 L741.8 168.125" clip-path="url(#clipPath2)"/>
      <path d="M749.8 168.125 L737.8 163.125 L740.8 168.125 L737.8 173.125 Z" clip-path="url(#clipPath2)" stroke="none"/>
      <text x="734.5631" xml:space="preserve" y="202.8389" clip-path="url(#clipPath2)" font-family="sans-serif" stroke="none">e</text>
      <path fill="none" d="M111 153.125 L111 48.875 L764.8 48.875 L764.8 145.125" clip-path="url(#clipPath2)"/>
      <path d="M764.8 153.125 L769.8 141.125 L764.8 144.125 L759.8 141.125 Z" clip-path="url(#clipPath2)" stroke="none"/>
      <text x="434.5631" xml:space="preserve" y="83.5889" clip-path="url(#clipPath2)" font-family="sans-serif" stroke="none">e</text>
    </g>
  </g>
</svg>
