<?xml version="1.0" encoding="UTF-8"?><svg xmlns="http://www.w3.org/2000/svg" xmlns:xlink="http://www.w3.org/1999/xlink" fill-opacity="1" color-rendering="auto" color-interpolation="auto" text-rendering="auto" stroke="black" stroke-linecap="square" width="284" stroke-miterlimit="10" shape-rendering="auto" stroke-opacity="1" fill="black" stroke-dasharray="none" font-weight="normal" stroke-width="1" height="275" font-family="'Dialog'" font-style="normal" stroke-linejoin="miter" font-size="12px" stroke-dashoffset="0" image-rendering="auto">
  <!--Generated by ySVG 2.6-->
  <defs id="genericDefs"/>
  <g>
    <defs id="defs1">
      <clipPath clipPathUnits="userSpaceOnUse" id="clipPath1">
        <path d="M0 0 L284 0 L284 275 L0 275 L0 0 Z"/>
      </clipPath>
      <clipPath clipPathUnits="userSpaceOnUse" id="clipPath2">
        <path d="M96 95 L380 95 L380 370 L96 370 L96 95 Z"/>
      </clipPath>
    </defs>
    <g fill="white" text-rendering="geometricPrecision" shape-rendering="geometricPrecision" transform="translate(-96,-95)" stroke="white">
      <rect x="96" width="284" height="275" y="95" clip-path="url(#clipPath2)" stroke="none"/>
    </g>
    <g fill="rgb(255,204,0)" text-rendering="geometricPrecision" shape-rendering="geometricPrecision" transform="matrix(1,0,0,1,-96,-95)" stroke="rgb(255,204,0)">
      <circle r="15" clip-path="url(#clipPath2)" cx="171" cy="161" stroke="none"/>
    </g>
    <g text-rendering="geometricPrecision" stroke-miterlimit="1.45" shape-rendering="geometricPrecision" transform="matrix(1,0,0,1,-96,-95)" stroke-linecap="butt">
      <circle fill="none" r="15" clip-path="url(#clipPath2)" cx="171" cy="161"/>
    </g>
    <g fill="rgb(255,204,0)" text-rendering="geometricPrecision" shape-rendering="geometricPrecision" transform="matrix(1,0,0,1,-96,-95)" stroke="rgb(255,204,0)">
      <circle r="0.5" clip-path="url(#clipPath2)" cx="112.3" cy="161" stroke="none"/>
    </g>
    <g text-rendering="geometricPrecision" stroke-miterlimit="1.45" shape-rendering="geometricPrecision" transform="matrix(1,0,0,1,-96,-95)" stroke-linecap="butt">
      <circle fill="none" r="0.5" clip-path="url(#clipPath2)" cx="112.3" cy="161"/>
    </g>
    <g fill="rgb(255,204,0)" text-rendering="geometricPrecision" shape-rendering="geometricPrecision" transform="matrix(1,0,0,1,-96,-95)" stroke="rgb(255,204,0)">
      <circle r="15" clip-path="url(#clipPath2)" cx="292.8" cy="161" stroke="none"/>
    </g>
    <g text-rendering="geometricPrecision" stroke-miterlimit="1.45" shape-rendering="geometricPrecision" transform="matrix(1,0,0,1,-96,-95)" stroke-linecap="butt">
      <circle fill="none" r="15" clip-path="url(#clipPath2)" cx="292.8" cy="161"/>
    </g>
    <g fill="rgb(255,204,0)" text-rendering="geometricPrecision" shape-rendering="geometricPrecision" transform="matrix(1,0,0,1,-96,-95)" stroke="rgb(255,204,0)">
      <circle r="0.5" clip-path="url(#clipPath2)" cx="342.9" cy="161" stroke="none"/>
    </g>
    <g text-rendering="geometricPrecision" stroke-miterlimit="1.45" shape-rendering="geometricPrecision" transform="matrix(1,0,0,1,-96,-95)" stroke-linecap="butt">
      <circle fill="none" r="0.5" clip-path="url(#clipPath2)" cx="342.9" cy="161"/>
    </g>
    <g fill="rgb(255,204,0)" text-rendering="geometricPrecision" shape-rendering="geometricPrecision" transform="matrix(1,0,0,1,-96,-95)" stroke="rgb(255,204,0)">
      <circle r="15" clip-path="url(#clipPath2)" cx="171" cy="299.28" stroke="none"/>
    </g>
    <g text-rendering="geometricPrecision" stroke-miterlimit="1.45" shape-rendering="geometricPrecision" transform="matrix(1,0,0,1,-96,-95)" stroke-linecap="butt">
      <circle fill="none" r="15" clip-path="url(#clipPath2)" cx="171" cy="299.28"/>
    </g>
    <g fill="rgb(255,204,0)" text-rendering="geometricPrecision" shape-rendering="geometricPrecision" transform="matrix(1,0,0,1,-96,-95)" stroke="rgb(255,204,0)">
      <circle r="15" clip-path="url(#clipPath2)" cx="292.8" cy="299.28" stroke="none"/>
    </g>
    <g text-rendering="geometricPrecision" stroke-miterlimit="1.45" shape-rendering="geometricPrecision" transform="matrix(1,0,0,1,-96,-95)" stroke-linecap="butt">
      <circle fill="none" r="15" clip-path="url(#clipPath2)" cx="292.8" cy="299.28"/>
      <path fill="none" d="M112.6726 160.674 L119.6375 154.5797 L126.975 149.9937 L134.3125 147.2422 L141.65 146.325 L148.9875 147.2422 L151.931 148.346 L152.0158 148.399" clip-path="url(#clipPath2)"/>
      <path d="M159.2524 151.8095 L150.5291 142.1708 L151.1112 147.9727 L146.2659 151.2166 Z" clip-path="url(#clipPath2)" stroke="none"/>
      <path fill="none" d="M182.2887 151.1224 L186.225 147.6781 L201.45 138.1625 L216.675 132.4531 L231.9 130.55 L247.125 132.4531 L262.35 138.1625 L275.2277 146.211 L275.3029 146.2769" clip-path="url(#clipPath2)"/>
      <path d="M281.6086 151.2001 L275.2271 139.8742 L274.5147 145.6615 L269.0731 147.7563 Z" clip-path="url(#clipPath2)" stroke="none"/>
      <text x="223.5475" xml:space="preserve" y="124.4055" clip-path="url(#clipPath2)" font-family="sans-serif" stroke="none">1</text>
      <path fill="none" d="M279.6862 168.3256 L277.575 169.505 L262.35 175.58 L247.125 179.2249 L231.9 180.4399 L216.675 179.2249 L201.45 175.58 L191.4028 171.571 L191.3155 171.5222" clip-path="url(#clipPath2)"/>
      <path d="M184.0043 168.2749 L192.9415 177.7155 L192.2294 171.9282 L197.0008 168.5764 Z" clip-path="url(#clipPath2)" stroke="none"/>
      <text x="224.8851" xml:space="preserve" y="166.7923" clip-path="url(#clipPath2)" font-family="sans-serif" stroke="none">1</text>
      <path fill="none" d="M336.57 166.503 L336.4948 166.5689 L330.375 170.3937 L324.1125 172.7422 L317.85 173.525 L311.5875 172.7422 L305.325 170.3937 L304.7623 170.0421" clip-path="url(#clipPath2)"/>
      <path d="M342.6085 161.2555 L330.2711 165.3527 L335.8152 167.159 L336.8305 172.9008 Z" clip-path="url(#clipPath2)" stroke="none"/>
      <path fill="none" d="M177.6032 174.4684 L179.4744 178.285 L185.5275 195.57 L189.1594 212.855 L190.37 230.14 L189.1594 247.425 L185.5275 264.71 L180.7189 278.4412 L180.6749 278.5309" clip-path="url(#clipPath2)"/>
      <path d="M177.5652 285.9019 L186.8365 276.789 L181.0636 277.6096 L177.6229 272.902 Z" clip-path="url(#clipPath2)" stroke="none"/>
      <text x="174.0356" xml:space="preserve" y="228.3691" clip-path="url(#clipPath2)" font-family="sans-serif" stroke="none">0</text>
      <path fill="none" d="M161.1042 287.9705 L155.8756 281.995 L145.0725 264.71 L141.2914 256.0675 L138.5906 247.425 L136.9702 238.7825 L136.43 230.14 L136.9702 221.4975 L138.5906 212.855 L141.2914 204.2125 L145.0725 195.57 L155.8583 178.3127 L155.9242 178.2374" clip-path="url(#clipPath2)"/>
      <path d="M161.1882 172.2133 L149.5271 177.9595 L155.2662 178.9904 L157.0572 184.5395 Z" clip-path="url(#clipPath2)" stroke="none"/>
      <text x="122.5394" xml:space="preserve" y="238.8244" clip-path="url(#clipPath2)" font-family="sans-serif" stroke="none">0</text>
      <path fill="none" d="M302.6958 172.3095 L307.9244 178.285 L318.7275 195.57 L322.5086 204.2125 L325.2094 212.855 L326.8298 221.4975 L327.37 230.14 L326.8298 238.7825 L325.2094 247.425 L322.5086 256.0675 L318.7275 264.71 L307.9566 281.9435 L307.8907 282.0187" clip-path="url(#clipPath2)"/>
      <path d="M302.6301 288.0458 L314.2879 282.2931 L308.5483 281.2654 L306.7541 275.7173 Z" clip-path="url(#clipPath2)" stroke="none"/>
      <text x="335.0988" xml:space="preserve" y="231.0882" clip-path="url(#clipPath2)" font-family="sans-serif" stroke="none">0</text>
      <path fill="none" d="M184.3516 292.5083 L186.225 291.5581 L201.45 286.0425 L216.675 282.7331 L231.9 281.63 L247.125 282.7331 L262.35 286.0425 L272.0175 289.5448 L272.1067 289.59" clip-path="url(#clipPath2)"/>
      <path d="M279.5409 292.5451 L270.2365 283.4661 L271.1774 289.2206 L266.5427 292.7589 Z" clip-path="url(#clipPath2)" stroke="none"/>
      <text x="224.5374" xml:space="preserve" y="300.1502" clip-path="url(#clipPath2)" font-family="sans-serif" stroke="none">1</text>
      <path fill="none" d="M287.0115 285.4047 L285.5891 281.995 L280.4384 264.71 L277.3481 247.425 L276.3179 230.14 L277.3481 212.855 L280.4384 195.57 L284.3564 182.4218 L284.3949 182.3295" clip-path="url(#clipPath2)"/>
      <path d="M287.0446 174.7811 L278.3523 184.4477 L284.0637 183.2731 L287.7878 187.7598 Z" clip-path="url(#clipPath2)" stroke="none"/>
      <text x="287.1634" xml:space="preserve" y="232.9096" clip-path="url(#clipPath2)" font-family="sans-serif" stroke="none">0</text>
      <path fill="none" d="M281.5299 309.1413 L277.575 312.6019 L262.35 322.1175 L247.125 327.8269 L231.9 329.73 L216.675 327.8269 L201.45 322.1175 L188.5723 314.0689 L188.4971 314.0031" clip-path="url(#clipPath2)"/>
      <path d="M182.1914 309.0798 L188.5729 320.4057 L189.2853 314.6185 L194.7269 312.5236 Z" clip-path="url(#clipPath2)" stroke="none"/>
      <text x="230.4167" xml:space="preserve" y="349.384" clip-path="url(#clipPath2)" font-family="sans-serif" stroke="none">1</text>
    </g>
  </g>
</svg>
