<?xml version="1.0" encoding="UTF-8"?><svg xmlns="http://www.w3.org/2000/svg" xmlns:xlink="http://www.w3.org/1999/xlink" fill-opacity="1" color-rendering="auto" color-interpolation="auto" text-rendering="auto" stroke="black" stroke-linecap="square" width="834" stroke-miterlimit="10" shape-rendering="auto" stroke-opacity="1" fill="black" stroke-dasharray="none" font-weight="normal" stroke-width="1" height="288" font-family="'Dialog'" font-style="normal" stroke-linejoin="miter" font-size="12px" stroke-dashoffset="0" image-rendering="auto">
  <!--Generated by ySVG 2.6-->
  <defs id="genericDefs"/>
  <g>
    <defs id="defs1">
      <clipPath clipPathUnits="userSpaceOnUse" id="clipPath1">
        <path d="M0 0 L834 0 L834 288 L0 288 L0 0 Z"/>
      </clipPath>
      <clipPath clipPathUnits="userSpaceOnUse" id="clipPath2">
        <path d="M61 15 L895 15 L895 303 L61 303 L61 15 Z"/>
      </clipPath>
    </defs>
    <g fill="white" text-rendering="geometricPrecision" shape-rendering="geometricPrecision" transform="translate(-61,-15)" stroke="white">
      <rect x="61" width="834" height="288" y="15" clip-path="url(#clipPath2)" stroke="none"/>
    </g>
    <g fill="rgb(255,204,0)" text-rendering="geometricPrecision" shape-rendering="geometricPrecision" transform="matrix(1,0,0,1,-61,-15)" stroke="rgb(255,204,0)">
      <circle r="15" clip-path="url(#clipPath2)" cx="182.2" cy="168.125" stroke="none"/>
    </g>
    <g text-rendering="geometricPrecision" stroke-miterlimit="1.45" shape-rendering="geometricPrecision" transform="matrix(1,0,0,1,-61,-15)" stroke-linecap="butt">
      <circle fill="none" r="15" clip-path="url(#clipPath2)" cx="182.2" cy="168.125"/>
    </g>
    <g fill="rgb(255,204,0)" text-rendering="geometricPrecision" shape-rendering="geometricPrecision" transform="matrix(1,0,0,1,-61,-15)" stroke="rgb(255,204,0)">
      <circle r="0.5" clip-path="url(#clipPath2)" cx="857.34" cy="168.125" stroke="none"/>
    </g>
    <g text-rendering="geometricPrecision" stroke-miterlimit="1.45" shape-rendering="geometricPrecision" transform="matrix(1,0,0,1,-61,-15)" stroke-linecap="butt">
      <circle fill="none" r="0.5" clip-path="url(#clipPath2)" cx="857.34" cy="168.125"/>
    </g>
    <g fill="rgb(255,204,0)" text-rendering="geometricPrecision" shape-rendering="geometricPrecision" transform="matrix(1,0,0,1,-61,-15)" stroke="rgb(255,204,0)">
      <circle r="15" clip-path="url(#clipPath2)" cx="231" cy="134.5625" stroke="none"/>
    </g>
    <g text-rendering="geometricPrecision" stroke-miterlimit="1.45" shape-rendering="geometricPrecision" transform="matrix(1,0,0,1,-61,-15)" stroke-linecap="butt">
      <circle fill="none" r="15" clip-path="url(#clipPath2)" cx="231" cy="134.5625"/>
    </g>
    <g fill="rgb(255,204,0)" text-rendering="geometricPrecision" shape-rendering="geometricPrecision" transform="matrix(1,0,0,1,-61,-15)" stroke="rgb(255,204,0)">
      <circle r="15" clip-path="url(#clipPath2)" cx="231" cy="190.5" stroke="none"/>
    </g>
    <g text-rendering="geometricPrecision" stroke-miterlimit="1.45" shape-rendering="geometricPrecision" transform="matrix(1,0,0,1,-61,-15)" stroke-linecap="butt">
      <circle fill="none" r="15" clip-path="url(#clipPath2)" cx="231" cy="190.5"/>
    </g>
    <g fill="rgb(255,204,0)" text-rendering="geometricPrecision" shape-rendering="geometricPrecision" transform="matrix(1,0,0,1,-61,-15)" stroke="rgb(255,204,0)">
      <circle r="15" clip-path="url(#clipPath2)" cx="287" cy="134.5625" stroke="none"/>
    </g>
    <g text-rendering="geometricPrecision" stroke-miterlimit="1.45" shape-rendering="geometricPrecision" transform="matrix(1,0,0,1,-61,-15)" stroke-linecap="butt">
      <circle fill="none" r="15" clip-path="url(#clipPath2)" cx="287" cy="134.5625"/>
    </g>
    <g fill="rgb(255,204,0)" text-rendering="geometricPrecision" shape-rendering="geometricPrecision" transform="matrix(1,0,0,1,-61,-15)" stroke="rgb(255,204,0)">
      <circle r="15" clip-path="url(#clipPath2)" cx="287" cy="190.5" stroke="none"/>
    </g>
    <g text-rendering="geometricPrecision" stroke-miterlimit="1.45" shape-rendering="geometricPrecision" transform="matrix(1,0,0,1,-61,-15)" stroke-linecap="butt">
      <circle fill="none" r="15" clip-path="url(#clipPath2)" cx="287" cy="190.5"/>
    </g>
    <g fill="rgb(255,204,0)" text-rendering="geometricPrecision" shape-rendering="geometricPrecision" transform="matrix(1,0,0,1,-61,-15)" stroke="rgb(255,204,0)">
      <circle r="15" clip-path="url(#clipPath2)" cx="333.4" cy="168.125" stroke="none"/>
    </g>
    <g text-rendering="geometricPrecision" stroke-miterlimit="1.45" shape-rendering="geometricPrecision" transform="matrix(1,0,0,1,-61,-15)" stroke-linecap="butt">
      <circle fill="none" r="15" clip-path="url(#clipPath2)" cx="333.4" cy="168.125"/>
    </g>
    <g fill="rgb(255,204,0)" text-rendering="geometricPrecision" shape-rendering="geometricPrecision" transform="matrix(1,0,0,1,-61,-15)" stroke="rgb(255,204,0)">
      <circle r="15" clip-path="url(#clipPath2)" cx="788.6" cy="168.125" stroke="none"/>
    </g>
    <g text-rendering="geometricPrecision" stroke-miterlimit="1.45" shape-rendering="geometricPrecision" transform="matrix(1,0,0,1,-61,-15)" stroke-linecap="butt">
      <circle fill="none" r="15" clip-path="url(#clipPath2)" cx="788.6" cy="168.125"/>
    </g>
    <g fill="rgb(255,204,0)" text-rendering="geometricPrecision" shape-rendering="geometricPrecision" transform="matrix(1,0,0,1,-61,-15)" stroke="rgb(255,204,0)">
      <circle r="15" clip-path="url(#clipPath2)" cx="379.8" cy="168.125" stroke="none"/>
    </g>
    <g text-rendering="geometricPrecision" stroke-miterlimit="1.45" shape-rendering="geometricPrecision" transform="matrix(1,0,0,1,-61,-15)" stroke-linecap="butt">
      <circle fill="none" r="15" clip-path="url(#clipPath2)" cx="379.8" cy="168.125"/>
    </g>
    <g fill="rgb(255,204,0)" text-rendering="geometricPrecision" shape-rendering="geometricPrecision" transform="matrix(1,0,0,1,-61,-15)" stroke="rgb(255,204,0)">
      <circle r="15" clip-path="url(#clipPath2)" cx="428.6" cy="134.5625" stroke="none"/>
    </g>
    <g text-rendering="geometricPrecision" stroke-miterlimit="1.45" shape-rendering="geometricPrecision" transform="matrix(1,0,0,1,-61,-15)" stroke-linecap="butt">
      <circle fill="none" r="15" clip-path="url(#clipPath2)" cx="428.6" cy="134.5625"/>
    </g>
    <g fill="rgb(255,204,0)" text-rendering="geometricPrecision" shape-rendering="geometricPrecision" transform="matrix(1,0,0,1,-61,-15)" stroke="rgb(255,204,0)">
      <circle r="15" clip-path="url(#clipPath2)" cx="428.6" cy="190.5" stroke="none"/>
    </g>
    <g text-rendering="geometricPrecision" stroke-miterlimit="1.45" shape-rendering="geometricPrecision" transform="matrix(1,0,0,1,-61,-15)" stroke-linecap="butt">
      <circle fill="none" r="15" clip-path="url(#clipPath2)" cx="428.6" cy="190.5"/>
    </g>
    <g fill="rgb(255,204,0)" text-rendering="geometricPrecision" shape-rendering="geometricPrecision" transform="matrix(1,0,0,1,-61,-15)" stroke="rgb(255,204,0)">
      <circle r="15" clip-path="url(#clipPath2)" cx="484.6" cy="134.5625" stroke="none"/>
    </g>
    <g text-rendering="geometricPrecision" stroke-miterlimit="1.45" shape-rendering="geometricPrecision" transform="matrix(1,0,0,1,-61,-15)" stroke-linecap="butt">
      <circle fill="none" r="15" clip-path="url(#clipPath2)" cx="484.6" cy="134.5625"/>
    </g>
    <g fill="rgb(255,204,0)" text-rendering="geometricPrecision" shape-rendering="geometricPrecision" transform="matrix(1,0,0,1,-61,-15)" stroke="rgb(255,204,0)">
      <circle r="15" clip-path="url(#clipPath2)" cx="484.6" cy="190.5" stroke="none"/>
    </g>
    <g text-rendering="geometricPrecision" stroke-miterlimit="1.45" shape-rendering="geometricPrecision" transform="matrix(1,0,0,1,-61,-15)" stroke-linecap="butt">
      <circle fill="none" r="15" clip-path="url(#clipPath2)" cx="484.6" cy="190.5"/>
    </g>
    <g fill="rgb(255,204,0)" text-rendering="geometricPrecision" shape-rendering="geometricPrecision" transform="matrix(1,0,0,1,-61,-15)" stroke="rgb(255,204,0)">
      <circle r="15" clip-path="url(#clipPath2)" cx="531" cy="168.125" stroke="none"/>
    </g>
    <g text-rendering="geometricPrecision" stroke-miterlimit="1.45" shape-rendering="geometricPrecision" transform="matrix(1,0,0,1,-61,-15)" stroke-linecap="butt">
      <circle fill="none" r="15" clip-path="url(#clipPath2)" cx="531" cy="168.125"/>
    </g>
    <g fill="rgb(255,204,0)" text-rendering="geometricPrecision" shape-rendering="geometricPrecision" transform="matrix(1,0,0,1,-61,-15)" stroke="rgb(255,204,0)">
      <circle r="15" clip-path="url(#clipPath2)" cx="577.4" cy="168.125" stroke="none"/>
    </g>
    <g text-rendering="geometricPrecision" stroke-miterlimit="1.45" shape-rendering="geometricPrecision" transform="matrix(1,0,0,1,-61,-15)" stroke-linecap="butt">
      <circle fill="none" r="15" clip-path="url(#clipPath2)" cx="577.4" cy="168.125"/>
    </g>
    <g fill="rgb(255,204,0)" text-rendering="geometricPrecision" shape-rendering="geometricPrecision" transform="matrix(1,0,0,1,-61,-15)" stroke="rgb(255,204,0)">
      <circle r="15" clip-path="url(#clipPath2)" cx="626.2" cy="134.5625" stroke="none"/>
    </g>
    <g text-rendering="geometricPrecision" stroke-miterlimit="1.45" shape-rendering="geometricPrecision" transform="matrix(1,0,0,1,-61,-15)" stroke-linecap="butt">
      <circle fill="none" r="15" clip-path="url(#clipPath2)" cx="626.2" cy="134.5625"/>
    </g>
    <g fill="rgb(255,204,0)" text-rendering="geometricPrecision" shape-rendering="geometricPrecision" transform="matrix(1,0,0,1,-61,-15)" stroke="rgb(255,204,0)">
      <circle r="15" clip-path="url(#clipPath2)" cx="626.2" cy="190.5" stroke="none"/>
    </g>
    <g text-rendering="geometricPrecision" stroke-miterlimit="1.45" shape-rendering="geometricPrecision" transform="matrix(1,0,0,1,-61,-15)" stroke-linecap="butt">
      <circle fill="none" r="15" clip-path="url(#clipPath2)" cx="626.2" cy="190.5"/>
    </g>
    <g fill="rgb(255,204,0)" text-rendering="geometricPrecision" shape-rendering="geometricPrecision" transform="matrix(1,0,0,1,-61,-15)" stroke="rgb(255,204,0)">
      <circle r="15" clip-path="url(#clipPath2)" cx="682.2" cy="134.5625" stroke="none"/>
    </g>
    <g text-rendering="geometricPrecision" stroke-miterlimit="1.45" shape-rendering="geometricPrecision" transform="matrix(1,0,0,1,-61,-15)" stroke-linecap="butt">
      <circle fill="none" r="15" clip-path="url(#clipPath2)" cx="682.2" cy="134.5625"/>
    </g>
    <g fill="rgb(255,204,0)" text-rendering="geometricPrecision" shape-rendering="geometricPrecision" transform="matrix(1,0,0,1,-61,-15)" stroke="rgb(255,204,0)">
      <circle r="15" clip-path="url(#clipPath2)" cx="682.2" cy="190.5" stroke="none"/>
    </g>
    <g text-rendering="geometricPrecision" stroke-miterlimit="1.45" shape-rendering="geometricPrecision" transform="matrix(1,0,0,1,-61,-15)" stroke-linecap="butt">
      <circle fill="none" r="15" clip-path="url(#clipPath2)" cx="682.2" cy="190.5"/>
    </g>
    <g fill="rgb(255,204,0)" text-rendering="geometricPrecision" shape-rendering="geometricPrecision" transform="matrix(1,0,0,1,-61,-15)" stroke="rgb(255,204,0)">
      <circle r="15" clip-path="url(#clipPath2)" cx="728.6" cy="168.125" stroke="none"/>
    </g>
    <g text-rendering="geometricPrecision" stroke-miterlimit="1.45" shape-rendering="geometricPrecision" transform="matrix(1,0,0,1,-61,-15)" stroke-linecap="butt">
      <circle fill="none" r="15" clip-path="url(#clipPath2)" cx="728.6" cy="168.125"/>
    </g>
    <g fill="rgb(255,204,0)" text-rendering="geometricPrecision" shape-rendering="geometricPrecision" transform="matrix(1,0,0,1,-61,-15)" stroke="rgb(255,204,0)">
      <circle r="0.5" clip-path="url(#clipPath2)" cx="76.7" cy="168.125" stroke="none"/>
    </g>
    <g text-rendering="geometricPrecision" stroke-miterlimit="1.45" shape-rendering="geometricPrecision" transform="matrix(1,0,0,1,-61,-15)" stroke-linecap="butt">
      <circle fill="none" r="0.5" clip-path="url(#clipPath2)" cx="76.7" cy="168.125"/>
    </g>
    <g fill="rgb(255,204,0)" text-rendering="geometricPrecision" shape-rendering="geometricPrecision" transform="matrix(1,0,0,1,-61,-15)" stroke="rgb(255,204,0)">
      <circle r="15" clip-path="url(#clipPath2)" cx="122.2" cy="168.125" stroke="none"/>
    </g>
    <g text-rendering="geometricPrecision" stroke-miterlimit="1.45" shape-rendering="geometricPrecision" transform="matrix(1,0,0,1,-61,-15)" stroke-linecap="butt">
      <circle fill="none" r="15" clip-path="url(#clipPath2)" cx="122.2" cy="168.125"/>
      <path fill="none" d="M194.5668 159.6197 L212.0493 147.5959" clip-path="url(#clipPath2)"/>
      <path d="M218.6409 143.0626 L205.9202 145.7429 L211.2254 148.1626 L211.5869 153.9823 Z" clip-path="url(#clipPath2)" stroke="none"/>
      <text x="194.2986" xml:space="preserve" y="153.158" clip-path="url(#clipPath2)" font-family="sans-serif" stroke="none">e</text>
      <path fill="none" d="M195.8351 174.3767 L210.0929 180.914" clip-path="url(#clipPath2)"/>
      <path d="M217.3649 184.2483 L208.5408 174.7018 L209.1839 180.4972 L204.3729 183.7919 Z" clip-path="url(#clipPath2)" stroke="none"/>
      <text x="191.4871" xml:space="preserve" y="194.2664" clip-path="url(#clipPath2)" font-family="sans-serif" stroke="none">e</text>
      <path fill="none" d="M246 134.5625 L264 134.5625" clip-path="url(#clipPath2)"/>
      <path d="M272 134.5625 L260 129.5625 L263 134.5625 L260 139.5625 Z" clip-path="url(#clipPath2)" stroke="none"/>
      <text x="253.698" xml:space="preserve" y="128.8013" clip-path="url(#clipPath2)" font-family="sans-serif" stroke="none">1</text>
      <path fill="none" d="M246 190.5 L264 190.5" clip-path="url(#clipPath2)"/>
      <path d="M272 190.5 L260 185.5 L263 190.5 L260 195.5 Z" clip-path="url(#clipPath2)" stroke="none"/>
      <text x="254.3338" xml:space="preserve" y="184.7388" clip-path="url(#clipPath2)" font-family="sans-serif" stroke="none">0</text>
      <path fill="none" d="M299.1538 143.3537 L314.7642 154.6452" clip-path="url(#clipPath2)"/>
      <path d="M321.2462 159.3338 L314.4536 148.2496 L313.9539 154.0591 L308.5928 156.3521 Z" clip-path="url(#clipPath2)" stroke="none"/>
      <text x="311.5048" xml:space="preserve" y="142.4861" clip-path="url(#clipPath2)" font-family="sans-serif" stroke="none">e</text>
      <path fill="none" d="M300.5111 183.9847 L312.683 178.1152" clip-path="url(#clipPath2)"/>
      <path d="M319.8889 174.6403 L306.9082 175.3489 L311.7822 178.5495 L311.2518 184.3563 Z" clip-path="url(#clipPath2)" stroke="none"/>
      <text x="309" xml:space="preserve" y="198.5876" clip-path="url(#clipPath2)" font-family="sans-serif" stroke="none">e</text>
      <path fill="none" d="M848.8365 168.125 L803.6267 168.125" clip-path="url(#clipPath2)"/>
      <path d="M856.8365 168.125 L844.8365 163.125 L847.8365 168.125 L844.8365 173.125 Z" clip-path="url(#clipPath2)" stroke="none"/>
      <path fill="none" d="M348.4 168.125 L356.8 168.125" clip-path="url(#clipPath2)"/>
      <path d="M364.8 168.125 L352.8 163.125 L355.8 168.125 L352.8 173.125 Z" clip-path="url(#clipPath2)" stroke="none"/>
      <text x="353.2631" xml:space="preserve" y="202.8389" clip-path="url(#clipPath2)" font-family="sans-serif" stroke="none">e</text>
      <path fill="none" d="M392.1668 159.6197 L409.6624 147.5869" clip-path="url(#clipPath2)"/>
      <path d="M416.254 143.0535 L403.5333 145.7339 L408.8385 148.1536 L409.2 153.9733 Z" clip-path="url(#clipPath2)" stroke="none"/>
      <text x="391.8986" xml:space="preserve" y="153.158" clip-path="url(#clipPath2)" font-family="sans-serif" stroke="none">e</text>
      <path fill="none" d="M393.4351 174.3767 L407.6929 180.914" clip-path="url(#clipPath2)"/>
      <path d="M414.9649 184.2483 L406.1408 174.7018 L406.7838 180.4972 L401.9729 183.7919 Z" clip-path="url(#clipPath2)" stroke="none"/>
      <text x="389.0871" xml:space="preserve" y="194.2664" clip-path="url(#clipPath2)" font-family="sans-serif" stroke="none">e</text>
      <path fill="none" d="M443.6 134.5625 L461.6 134.5625" clip-path="url(#clipPath2)"/>
      <path d="M469.6 134.5625 L457.6 129.5625 L460.6 134.5625 L457.6 139.5625 Z" clip-path="url(#clipPath2)" stroke="none"/>
      <text x="451.298" xml:space="preserve" y="128.8013" clip-path="url(#clipPath2)" font-family="sans-serif" stroke="none">1</text>
      <path fill="none" d="M443.6 190.5 L461.6 190.5" clip-path="url(#clipPath2)"/>
      <path d="M469.6 190.5 L457.6 185.5 L460.6 190.5 L457.6 195.5 Z" clip-path="url(#clipPath2)" stroke="none"/>
      <text x="451.9338" xml:space="preserve" y="184.7388" clip-path="url(#clipPath2)" font-family="sans-serif" stroke="none">0</text>
      <path fill="none" d="M496.7538 143.3537 L512.3642 154.6452" clip-path="url(#clipPath2)"/>
      <path d="M518.8462 159.3338 L512.0536 148.2496 L511.5539 154.0591 L506.1927 156.3521 Z" clip-path="url(#clipPath2)" stroke="none"/>
      <text x="509.1048" xml:space="preserve" y="142.4861" clip-path="url(#clipPath2)" font-family="sans-serif" stroke="none">e</text>
      <path fill="none" d="M498.1111 183.9847 L510.283 178.1152" clip-path="url(#clipPath2)"/>
      <path d="M517.4889 174.6403 L504.5082 175.3489 L509.3822 178.5495 L508.8518 184.3563 Z" clip-path="url(#clipPath2)" stroke="none"/>
      <text x="506.6" xml:space="preserve" y="198.5876" clip-path="url(#clipPath2)" font-family="sans-serif" stroke="none">e</text>
      <path fill="none" d="M546 168.125 L554.4 168.125" clip-path="url(#clipPath2)"/>
      <path d="M562.4 168.125 L550.4 163.125 L553.4 168.125 L550.4 173.125 Z" clip-path="url(#clipPath2)" stroke="none"/>
      <text x="550.8631" xml:space="preserve" y="202.8389" clip-path="url(#clipPath2)" font-family="sans-serif" stroke="none">e</text>
      <path fill="none" d="M589.7668 159.6197 L607.2625 147.5869" clip-path="url(#clipPath2)"/>
      <path d="M613.854 143.0535 L601.1333 145.7339 L606.4385 148.1536 L606.8 153.9733 Z" clip-path="url(#clipPath2)" stroke="none"/>
      <text x="589.4987" xml:space="preserve" y="153.158" clip-path="url(#clipPath2)" font-family="sans-serif" stroke="none">e</text>
      <path fill="none" d="M591.0351 174.3767 L605.2928 180.914" clip-path="url(#clipPath2)"/>
      <path d="M612.5649 184.2483 L603.7407 174.7018 L604.3839 180.4972 L599.5729 183.7919 Z" clip-path="url(#clipPath2)" stroke="none"/>
      <text x="586.6871" xml:space="preserve" y="194.2664" clip-path="url(#clipPath2)" font-family="sans-serif" stroke="none">e</text>
      <path fill="none" d="M641.2 134.5625 L659.2 134.5625" clip-path="url(#clipPath2)"/>
      <path d="M667.2 134.5625 L655.2 129.5625 L658.2 134.5625 L655.2 139.5625 Z" clip-path="url(#clipPath2)" stroke="none"/>
      <text x="648.898" xml:space="preserve" y="128.8013" clip-path="url(#clipPath2)" font-family="sans-serif" stroke="none">1</text>
      <path fill="none" d="M641.2 190.5 L659.2 190.5" clip-path="url(#clipPath2)"/>
      <path d="M667.2 190.5 L655.2 185.5 L658.2 190.5 L655.2 195.5 Z" clip-path="url(#clipPath2)" stroke="none"/>
      <text x="649.5338" xml:space="preserve" y="184.7388" clip-path="url(#clipPath2)" font-family="sans-serif" stroke="none">0</text>
      <path fill="none" d="M694.3538 143.3537 L709.9642 154.6452" clip-path="url(#clipPath2)"/>
      <path d="M716.4462 159.3338 L709.6536 148.2496 L709.1539 154.0591 L703.7928 156.3521 Z" clip-path="url(#clipPath2)" stroke="none"/>
      <text x="706.7048" xml:space="preserve" y="142.4861" clip-path="url(#clipPath2)" font-family="sans-serif" stroke="none">e</text>
      <path fill="none" d="M695.7111 183.9847 L707.8829 178.1152" clip-path="url(#clipPath2)"/>
      <path d="M715.0889 174.6403 L702.1082 175.3489 L706.9822 178.5495 L706.4517 184.3563 Z" clip-path="url(#clipPath2)" stroke="none"/>
      <text x="704.2" xml:space="preserve" y="198.5876" clip-path="url(#clipPath2)" font-family="sans-serif" stroke="none">e</text>
      <path fill="none" d="M717.0276 177.6239 L694.45 196.1562 L660.3 220.45 L626.15 241.0062 L592 257.825 L557.85 270.9062 L523.7 280.25 L489.55 285.8562 L455.4 287.725 L421.25 285.8562 L387.1 280.25 L352.95 270.9062 L318.8 257.825 L284.65 241.0062 L250.5 220.45 L216.35 196.1562 L199.9559 182.6996" clip-path="url(#clipPath2)"/>
      <path d="M193.7723 177.6239 L199.8755 189.1022 L200.7289 183.334 L206.2201 181.3726 Z" clip-path="url(#clipPath2)" stroke="none"/>
      <text x="451.0391" xml:space="preserve" y="279.1461" clip-path="url(#clipPath2)" font-family="sans-serif" stroke="none">e</text>
      <path fill="none" d="M743.6 168.125 L765.6 168.125" clip-path="url(#clipPath2)"/>
      <path d="M773.6 168.125 L761.6 163.125 L764.6 168.125 L761.6 173.125 Z" clip-path="url(#clipPath2)" stroke="none"/>
      <text x="755.2631" xml:space="preserve" y="202.8389" clip-path="url(#clipPath2)" font-family="sans-serif" stroke="none">e</text>
      <path fill="none" d="M77.1888 168.125 L99.2109 168.125" clip-path="url(#clipPath2)"/>
      <path d="M107.2109 168.125 L95.2109 163.125 L98.2109 168.125 L95.2109 173.125 Z" clip-path="url(#clipPath2)" stroke="none"/>
      <path fill="none" d="M137.2 168.125 L159.2 168.125" clip-path="url(#clipPath2)"/>
      <path d="M167.2 168.125 L155.2 163.125 L158.2 168.125 L155.2 173.125 Z" clip-path="url(#clipPath2)" stroke="none"/>
      <text x="148.0439" xml:space="preserve" y="158.1925" clip-path="url(#clipPath2)" font-family="sans-serif" stroke="none">e</text>
      <path fill="none" d="M135.3376 160.7986 L163.85 144.8984 L205.5 124.7688 L247.15 107.7359 L288.8 93.8 L330.45 82.9609 L372.1 75.2188 L413.75 70.5734 L455.4 69.025 L497.05 70.5734 L538.7 75.2188 L580.35 82.9609 L622 93.8 L663.65 107.7359 L705.3 124.7688 L746.95 144.8984 L768.4753 156.9023" clip-path="url(#clipPath2)"/>
      <path d="M775.4623 160.7986 L767.4171 150.5872 L767.602 156.4152 L762.5466 159.321 Z" clip-path="url(#clipPath2)" stroke="none"/>
      <text x="443.5107" xml:space="preserve" y="44.9837" clip-path="url(#clipPath2)" font-family="sans-serif" stroke="none">e</text>
    </g>
  </g>
</svg>
