<?xml version="1.0" encoding="UTF-8"?><svg xmlns="http://www.w3.org/2000/svg" xmlns:xlink="http://www.w3.org/1999/xlink" fill-opacity="1" color-rendering="auto" color-interpolation="auto" text-rendering="auto" stroke="black" stroke-linecap="square" width="256" stroke-miterlimit="10" shape-rendering="auto" stroke-opacity="1" fill="black" stroke-dasharray="none" font-weight="normal" stroke-width="1" height="147" font-family="'Dialog'" font-style="normal" stroke-linejoin="miter" font-size="12px" stroke-dashoffset="0" image-rendering="auto">
  <!--Generated by ySVG 2.6-->
  <defs id="genericDefs"/>
  <g>
    <defs id="defs1">
      <clipPath clipPathUnits="userSpaceOnUse" id="clipPath1">
        <path d="M0 0 L256 0 L256 147 L0 147 L0 0 Z"/>
      </clipPath>
      <clipPath clipPathUnits="userSpaceOnUse" id="clipPath2">
        <path d="M22 266 L278 266 L278 413 L22 413 L22 266 Z"/>
      </clipPath>
    </defs>
    <g fill="white" text-rendering="geometricPrecision" shape-rendering="geometricPrecision" transform="translate(-22,-266)" stroke="white">
      <rect x="22" width="256" height="147" y="266" clip-path="url(#clipPath2)" stroke="none"/>
    </g>
    <g fill="rgb(255,204,0)" text-rendering="geometricPrecision" shape-rendering="geometricPrecision" transform="matrix(1,0,0,1,-22,-266)" stroke="rgb(255,204,0)">
      <circle r="0.5" clip-path="url(#clipPath2)" cx="37.5" cy="357.25" stroke="none"/>
    </g>
    <g text-rendering="geometricPrecision" stroke-miterlimit="1.45" shape-rendering="geometricPrecision" transform="matrix(1,0,0,1,-22,-266)" stroke-linecap="butt">
      <circle fill="none" r="0.5" clip-path="url(#clipPath2)" cx="37.5" cy="357.25"/>
    </g>
    <g fill="rgb(255,204,0)" text-rendering="geometricPrecision" shape-rendering="geometricPrecision" transform="matrix(1,0,0,1,-22,-266)" stroke="rgb(255,204,0)">
      <circle r="15" clip-path="url(#clipPath2)" cx="83" cy="357.25" stroke="none"/>
    </g>
    <g text-rendering="geometricPrecision" stroke-miterlimit="1.45" shape-rendering="geometricPrecision" transform="matrix(1,0,0,1,-22,-266)" stroke-linecap="butt">
      <circle fill="none" r="15" clip-path="url(#clipPath2)" cx="83" cy="357.25"/>
    </g>
    <g fill="rgb(255,204,0)" text-rendering="geometricPrecision" shape-rendering="geometricPrecision" transform="matrix(1,0,0,1,-22,-266)" stroke="rgb(255,204,0)">
      <circle r="0.5" clip-path="url(#clipPath2)" cx="83" cy="396" stroke="none"/>
    </g>
    <g text-rendering="geometricPrecision" stroke-miterlimit="1.45" shape-rendering="geometricPrecision" transform="matrix(1,0,0,1,-22,-266)" stroke-linecap="butt">
      <circle fill="none" r="0.5" clip-path="url(#clipPath2)" cx="83" cy="396"/>
    </g>
    <g fill="rgb(255,204,0)" text-rendering="geometricPrecision" shape-rendering="geometricPrecision" transform="matrix(1,0,0,1,-22,-266)" stroke="rgb(255,204,0)">
      <circle r="15" clip-path="url(#clipPath2)" cx="165.4" cy="357.25" stroke="none"/>
    </g>
    <g text-rendering="geometricPrecision" stroke-miterlimit="1.45" shape-rendering="geometricPrecision" transform="matrix(1,0,0,1,-22,-266)" stroke-linecap="butt">
      <circle fill="none" r="15" clip-path="url(#clipPath2)" cx="165.4" cy="357.25"/>
    </g>
    <g fill="rgb(255,204,0)" text-rendering="geometricPrecision" shape-rendering="geometricPrecision" transform="matrix(1,0,0,1,-22,-266)" stroke="rgb(255,204,0)">
      <circle r="15" clip-path="url(#clipPath2)" cx="247.8" cy="357.25" stroke="none"/>
    </g>
    <g text-rendering="geometricPrecision" stroke-miterlimit="1.45" shape-rendering="geometricPrecision" transform="matrix(1,0,0,1,-22,-266)" stroke-linecap="butt">
      <circle fill="none" r="15" clip-path="url(#clipPath2)" cx="247.8" cy="357.25"/>
      <path fill="none" d="M37.9888 357.25 L60.0109 357.25" clip-path="url(#clipPath2)"/>
      <path d="M68.0109 357.25 L56.0109 352.25 L59.0109 357.25 L56.0109 362.25 Z" clip-path="url(#clipPath2)" stroke="none"/>
      <path fill="none" d="M83 372.25 L83 387.5" clip-path="url(#clipPath2)"/>
      <path d="M83 395.5 L88 383.5 L83 386.5 L78 383.5 Z" clip-path="url(#clipPath2)" stroke="none"/>
      <path fill="none" d="M98 357.25 L142.4 357.25" clip-path="url(#clipPath2)"/>
      <path d="M150.4 357.25 L138.4 352.25 L141.4 357.25 L138.4 362.25 Z" clip-path="url(#clipPath2)" stroke="none"/>
      <text x="114.1922" xml:space="preserve" y="391.9639" clip-path="url(#clipPath2)" font-family="sans-serif" stroke="none">0, 1</text>
      <path fill="none" d="M180.4 357.25 L224.8 357.25" clip-path="url(#clipPath2)"/>
      <path d="M232.8 357.25 L220.8 352.25 L223.8 357.25 L220.8 362.25 Z" clip-path="url(#clipPath2)" stroke="none"/>
      <text x="198.2592" xml:space="preserve" y="391.9639" clip-path="url(#clipPath2)" font-family="sans-serif" stroke="none">0,1</text>
      <path fill="none" d="M236.2729 347.6427 L227.2 340.0809 L216.9 333.3359 L206.6 327.8172 L196.3 323.5249 L186 320.459 L175.7 318.6195 L165.4 318.0063 L155.1 318.6195 L144.8 320.459 L134.5 323.5249 L124.2 327.8172 L113.9 333.3359 L103.6 340.0809 L100.6726 342.5208" clip-path="url(#clipPath2)"/>
      <path d="M94.5272 347.6427 L106.9465 343.8007 L101.4407 341.8805 L100.5441 336.1189 Z" clip-path="url(#clipPath2)" stroke="none"/>
      <text x="168.2917" xml:space="preserve" y="295.635" clip-path="url(#clipPath2)" font-family="sans-serif" stroke="none">0, 1</text>
    </g>
  </g>
</svg>
