<?xml version="1.0" encoding="UTF-8"?><svg xmlns="http://www.w3.org/2000/svg" xmlns:xlink="http://www.w3.org/1999/xlink" fill-opacity="1" color-rendering="auto" color-interpolation="auto" text-rendering="auto" stroke="black" stroke-linecap="square" width="1078" stroke-miterlimit="10" shape-rendering="auto" stroke-opacity="1" fill="black" stroke-dasharray="none" font-weight="normal" stroke-width="1" height="307" font-family="'Dialog'" font-style="normal" stroke-linejoin="miter" font-size="12px" stroke-dashoffset="0" image-rendering="auto">
  <!--Generated by ySVG 2.6-->
  <defs id="genericDefs"/>
  <g>
    <defs id="defs1">
      <clipPath clipPathUnits="userSpaceOnUse" id="clipPath1">
        <path d="M0 0 L1078 0 L1078 307 L0 307 L0 0 Z"/>
      </clipPath>
      <clipPath clipPathUnits="userSpaceOnUse" id="clipPath2">
        <path d="M22 214 L1100 214 L1100 521 L22 521 L22 214 Z"/>
      </clipPath>
    </defs>
    <g fill="white" text-rendering="geometricPrecision" shape-rendering="geometricPrecision" transform="translate(-22,-214)" stroke="white">
      <rect x="22" width="1078" height="307" y="214" clip-path="url(#clipPath2)" stroke="none"/>
    </g>
    <g fill="rgb(255,204,0)" text-rendering="geometricPrecision" shape-rendering="geometricPrecision" transform="matrix(1,0,0,1,-22,-214)" stroke="rgb(255,204,0)">
      <circle r="0.5" clip-path="url(#clipPath2)" cx="37.5" cy="357.25" stroke="none"/>
    </g>
    <g text-rendering="geometricPrecision" stroke-miterlimit="1.45" shape-rendering="geometricPrecision" transform="matrix(1,0,0,1,-22,-214)" stroke-linecap="butt">
      <circle fill="none" r="0.5" clip-path="url(#clipPath2)" cx="37.5" cy="357.25"/>
    </g>
    <g fill="rgb(255,204,0)" text-rendering="geometricPrecision" shape-rendering="geometricPrecision" transform="matrix(1,0,0,1,-22,-214)" stroke="rgb(255,204,0)">
      <circle r="15" clip-path="url(#clipPath2)" cx="83" cy="357.25" stroke="none"/>
    </g>
    <g text-rendering="geometricPrecision" stroke-miterlimit="1.45" shape-rendering="geometricPrecision" transform="matrix(1,0,0,1,-22,-214)" stroke-linecap="butt">
      <circle fill="none" r="15" clip-path="url(#clipPath2)" cx="83" cy="357.25"/>
    </g>
    <g fill="rgb(255,204,0)" text-rendering="geometricPrecision" shape-rendering="geometricPrecision" transform="matrix(1,0,0,1,-22,-214)" stroke="rgb(255,204,0)">
      <circle r="15" clip-path="url(#clipPath2)" cx="148.6" cy="357.25" stroke="none"/>
    </g>
    <g text-rendering="geometricPrecision" stroke-miterlimit="1.45" shape-rendering="geometricPrecision" transform="matrix(1,0,0,1,-22,-214)" stroke-linecap="butt">
      <circle fill="none" r="15" clip-path="url(#clipPath2)" cx="148.6" cy="357.25"/>
    </g>
    <g fill="rgb(255,204,0)" text-rendering="geometricPrecision" shape-rendering="geometricPrecision" transform="matrix(1,0,0,1,-22,-214)" stroke="rgb(255,204,0)">
      <circle r="15" clip-path="url(#clipPath2)" cx="222.2" cy="357.25" stroke="none"/>
    </g>
    <g text-rendering="geometricPrecision" stroke-miterlimit="1.45" shape-rendering="geometricPrecision" transform="matrix(1,0,0,1,-22,-214)" stroke-linecap="butt">
      <circle fill="none" r="15" clip-path="url(#clipPath2)" cx="222.2" cy="357.25"/>
    </g>
    <g fill="rgb(255,204,0)" text-rendering="geometricPrecision" shape-rendering="geometricPrecision" transform="matrix(1,0,0,1,-22,-214)" stroke="rgb(255,204,0)">
      <circle r="15" clip-path="url(#clipPath2)" cx="282.2" cy="357.25" stroke="none"/>
    </g>
    <g text-rendering="geometricPrecision" stroke-miterlimit="1.45" shape-rendering="geometricPrecision" transform="matrix(1,0,0,1,-22,-214)" stroke-linecap="butt">
      <circle fill="none" r="15" clip-path="url(#clipPath2)" cx="282.2" cy="357.25"/>
    </g>
    <g fill="rgb(255,204,0)" text-rendering="geometricPrecision" shape-rendering="geometricPrecision" transform="matrix(1,0,0,1,-22,-214)" stroke="rgb(255,204,0)">
      <circle r="15" clip-path="url(#clipPath2)" cx="817.375" cy="357.25" stroke="none"/>
    </g>
    <g text-rendering="geometricPrecision" stroke-miterlimit="1.45" shape-rendering="geometricPrecision" transform="matrix(1,0,0,1,-22,-214)" stroke-linecap="butt">
      <circle fill="none" r="15" clip-path="url(#clipPath2)" cx="817.375" cy="357.25"/>
    </g>
    <g fill="rgb(255,204,0)" text-rendering="geometricPrecision" shape-rendering="geometricPrecision" transform="matrix(1,0,0,1,-22,-214)" stroke="rgb(255,204,0)">
      <circle r="15" clip-path="url(#clipPath2)" cx="882.975" cy="357.25" stroke="none"/>
    </g>
    <g text-rendering="geometricPrecision" stroke-miterlimit="1.45" shape-rendering="geometricPrecision" transform="matrix(1,0,0,1,-22,-214)" stroke-linecap="butt">
      <circle fill="none" r="15" clip-path="url(#clipPath2)" cx="882.975" cy="357.25"/>
    </g>
    <g fill="rgb(255,204,0)" text-rendering="geometricPrecision" shape-rendering="geometricPrecision" transform="matrix(1,0,0,1,-22,-214)" stroke="rgb(255,204,0)">
      <circle r="15" clip-path="url(#clipPath2)" cx="956.575" cy="357.25" stroke="none"/>
    </g>
    <g text-rendering="geometricPrecision" stroke-miterlimit="1.45" shape-rendering="geometricPrecision" transform="matrix(1,0,0,1,-22,-214)" stroke-linecap="butt">
      <circle fill="none" r="15" clip-path="url(#clipPath2)" cx="956.575" cy="357.25"/>
    </g>
    <g fill="rgb(255,204,0)" text-rendering="geometricPrecision" shape-rendering="geometricPrecision" transform="matrix(1,0,0,1,-22,-214)" stroke="rgb(255,204,0)">
      <circle r="15" clip-path="url(#clipPath2)" cx="1016.575" cy="357.25" stroke="none"/>
    </g>
    <g text-rendering="geometricPrecision" stroke-miterlimit="1.45" shape-rendering="geometricPrecision" transform="matrix(1,0,0,1,-22,-214)" stroke-linecap="butt">
      <circle fill="none" r="15" clip-path="url(#clipPath2)" cx="1016.575" cy="357.25"/>
    </g>
    <g fill="rgb(255,204,0)" text-rendering="geometricPrecision" shape-rendering="geometricPrecision" transform="matrix(1,0,0,1,-22,-214)" stroke="rgb(255,204,0)">
      <circle r="0.5" clip-path="url(#clipPath2)" cx="1062.075" cy="357.25" stroke="none"/>
    </g>
    <g text-rendering="geometricPrecision" stroke-miterlimit="1.45" shape-rendering="geometricPrecision" transform="matrix(1,0,0,1,-22,-214)" stroke-linecap="butt">
      <circle fill="none" r="0.5" clip-path="url(#clipPath2)" cx="1062.075" cy="357.25"/>
    </g>
    <g fill="rgb(255,204,0)" text-rendering="geometricPrecision" shape-rendering="geometricPrecision" transform="matrix(1,0,0,1,-22,-214)" stroke="rgb(255,204,0)">
      <circle r="15" clip-path="url(#clipPath2)" cx="342.2" cy="357.25" stroke="none"/>
    </g>
    <g text-rendering="geometricPrecision" stroke-miterlimit="1.45" shape-rendering="geometricPrecision" transform="matrix(1,0,0,1,-22,-214)" stroke-linecap="butt">
      <circle fill="none" r="15" clip-path="url(#clipPath2)" cx="342.2" cy="357.25"/>
    </g>
    <g fill="rgb(255,204,0)" text-rendering="geometricPrecision" shape-rendering="geometricPrecision" transform="matrix(1,0,0,1,-22,-214)" stroke="rgb(255,204,0)">
      <circle r="15" clip-path="url(#clipPath2)" cx="523.525" cy="288.25" stroke="none"/>
    </g>
    <g text-rendering="geometricPrecision" stroke-miterlimit="1.45" shape-rendering="geometricPrecision" transform="matrix(1,0,0,1,-22,-214)" stroke-linecap="butt">
      <circle fill="none" r="15" clip-path="url(#clipPath2)" cx="523.525" cy="288.25"/>
    </g>
    <g fill="rgb(255,204,0)" text-rendering="geometricPrecision" shape-rendering="geometricPrecision" transform="matrix(1,0,0,1,-22,-214)" stroke="rgb(255,204,0)">
      <circle r="15" clip-path="url(#clipPath2)" cx="597.125" cy="288.25" stroke="none"/>
    </g>
    <g text-rendering="geometricPrecision" stroke-miterlimit="1.45" shape-rendering="geometricPrecision" transform="matrix(1,0,0,1,-22,-214)" stroke-linecap="butt">
      <circle fill="none" r="15" clip-path="url(#clipPath2)" cx="597.125" cy="288.25"/>
    </g>
    <g fill="rgb(255,204,0)" text-rendering="geometricPrecision" shape-rendering="geometricPrecision" transform="matrix(1,0,0,1,-22,-214)" stroke="rgb(255,204,0)">
      <circle r="15" clip-path="url(#clipPath2)" cx="767.9125" cy="357.25" stroke="none"/>
    </g>
    <g text-rendering="geometricPrecision" stroke-miterlimit="1.45" shape-rendering="geometricPrecision" transform="matrix(1,0,0,1,-22,-214)" stroke-linecap="butt">
      <circle fill="none" r="15" clip-path="url(#clipPath2)" cx="767.9125" cy="357.25"/>
    </g>
    <g fill="rgb(255,204,0)" text-rendering="geometricPrecision" shape-rendering="geometricPrecision" transform="matrix(1,0,0,1,-22,-214)" stroke="rgb(255,204,0)">
      <circle r="15" clip-path="url(#clipPath2)" cx="402.2" cy="357.25" stroke="none"/>
    </g>
    <g text-rendering="geometricPrecision" stroke-miterlimit="1.45" shape-rendering="geometricPrecision" transform="matrix(1,0,0,1,-22,-214)" stroke-linecap="butt">
      <circle fill="none" r="15" clip-path="url(#clipPath2)" cx="402.2" cy="357.25"/>
    </g>
    <g fill="rgb(255,204,0)" text-rendering="geometricPrecision" shape-rendering="geometricPrecision" transform="matrix(1,0,0,1,-22,-214)" stroke="rgb(255,204,0)">
      <circle r="15" clip-path="url(#clipPath2)" cx="718.45" cy="357.25" stroke="none"/>
    </g>
    <g text-rendering="geometricPrecision" stroke-miterlimit="1.45" shape-rendering="geometricPrecision" transform="matrix(1,0,0,1,-22,-214)" stroke-linecap="butt">
      <circle fill="none" r="15" clip-path="url(#clipPath2)" cx="718.45" cy="357.25"/>
    </g>
    <g fill="rgb(255,204,0)" text-rendering="geometricPrecision" shape-rendering="geometricPrecision" transform="matrix(1,0,0,1,-22,-214)" stroke="rgb(255,204,0)">
      <circle r="15" clip-path="url(#clipPath2)" cx="541.045" cy="392.25" stroke="none"/>
    </g>
    <g text-rendering="geometricPrecision" stroke-miterlimit="1.45" shape-rendering="geometricPrecision" transform="matrix(1,0,0,1,-22,-214)" stroke-linecap="butt">
      <circle fill="none" r="15" clip-path="url(#clipPath2)" cx="541.045" cy="392.25"/>
    </g>
    <g fill="rgb(255,204,0)" text-rendering="geometricPrecision" shape-rendering="geometricPrecision" transform="matrix(1,0,0,1,-22,-214)" stroke="rgb(255,204,0)">
      <circle r="15" clip-path="url(#clipPath2)" cx="582.125" cy="392.25" stroke="none"/>
    </g>
    <g text-rendering="geometricPrecision" stroke-miterlimit="1.45" shape-rendering="geometricPrecision" transform="matrix(1,0,0,1,-22,-214)" stroke-linecap="butt">
      <circle fill="none" r="15" clip-path="url(#clipPath2)" cx="582.125" cy="392.25"/>
    </g>
    <g fill="rgb(255,204,0)" text-rendering="geometricPrecision" shape-rendering="geometricPrecision" transform="matrix(1,0,0,1,-22,-214)" stroke="rgb(255,204,0)">
      <circle r="15" clip-path="url(#clipPath2)" cx="627.125" cy="392.25" stroke="none"/>
    </g>
    <g text-rendering="geometricPrecision" stroke-miterlimit="1.45" shape-rendering="geometricPrecision" transform="matrix(1,0,0,1,-22,-214)" stroke-linecap="butt">
      <circle fill="none" r="15" clip-path="url(#clipPath2)" cx="627.125" cy="392.25"/>
    </g>
    <g fill="rgb(255,204,0)" text-rendering="geometricPrecision" shape-rendering="geometricPrecision" transform="matrix(1,0,0,1,-22,-214)" stroke="rgb(255,204,0)">
      <circle r="15" clip-path="url(#clipPath2)" cx="672.125" cy="392.25" stroke="none"/>
    </g>
    <g text-rendering="geometricPrecision" stroke-miterlimit="1.45" shape-rendering="geometricPrecision" transform="matrix(1,0,0,1,-22,-214)" stroke-linecap="butt">
      <circle fill="none" r="15" clip-path="url(#clipPath2)" cx="672.125" cy="392.25"/>
    </g>
    <g fill="rgb(255,204,0)" text-rendering="geometricPrecision" shape-rendering="geometricPrecision" transform="matrix(1,0,0,1,-22,-214)" stroke="rgb(255,204,0)">
      <circle r="15" clip-path="url(#clipPath2)" cx="454.965" cy="392.25" stroke="none"/>
    </g>
    <g text-rendering="geometricPrecision" stroke-miterlimit="1.45" shape-rendering="geometricPrecision" transform="matrix(1,0,0,1,-22,-214)" stroke-linecap="butt">
      <circle fill="none" r="15" clip-path="url(#clipPath2)" cx="454.965" cy="392.25"/>
    </g>
    <g fill="rgb(255,204,0)" text-rendering="geometricPrecision" shape-rendering="geometricPrecision" transform="matrix(1,0,0,1,-22,-214)" stroke="rgb(255,204,0)">
      <circle r="15" clip-path="url(#clipPath2)" cx="499.965" cy="392.25" stroke="none"/>
    </g>
    <g text-rendering="geometricPrecision" stroke-miterlimit="1.45" shape-rendering="geometricPrecision" transform="matrix(1,0,0,1,-22,-214)" stroke-linecap="butt">
      <circle fill="none" r="15" clip-path="url(#clipPath2)" cx="499.965" cy="392.25"/>
      <path fill="none" d="M37.9888 357.25 L60.0109 357.25" clip-path="url(#clipPath2)"/>
      <path d="M68.0109 357.25 L56.0109 352.25 L59.0109 357.25 L56.0109 362.25 Z" clip-path="url(#clipPath2)" stroke="none"/>
      <path fill="none" d="M98 357.25 L125.6 357.25" clip-path="url(#clipPath2)"/>
      <path d="M133.6 357.25 L121.6 352.25 L124.6 357.25 L121.6 362.25 Z" clip-path="url(#clipPath2)" stroke="none"/>
      <text x="112.4631" xml:space="preserve" y="391.9639" clip-path="url(#clipPath2)" font-family="sans-serif" stroke="none">e</text>
      <path fill="none" d="M163.6 357.25 L199.2 357.25" clip-path="url(#clipPath2)"/>
      <path d="M207.2 357.25 L195.2 352.25 L198.2 357.25 L195.2 362.25 Z" clip-path="url(#clipPath2)" stroke="none"/>
      <text x="182.0631" xml:space="preserve" y="391.9639" clip-path="url(#clipPath2)" font-family="sans-serif" stroke="none">0</text>
      <path fill="none" d="M214.2398 344.531 L213 342.55 L203.8 332.05 L194.6 325.75 L190 324.175 L185.4 323.65 L180.8 324.175 L176.2 325.75 L167 332.05 L161.546 338.2747 L161.4929 338.3595" clip-path="url(#clipPath2)"/>
      <path d="M156.4981 344.6086 L167.896 338.3566 L162.1173 337.5783 L160.0846 332.1132 Z" clip-path="url(#clipPath2)" stroke="none"/>
      <text x="182.0631" xml:space="preserve" y="328.3639" clip-path="url(#clipPath2)" font-family="sans-serif" stroke="none">e</text>
      <path fill="none" d="M237.2 357.25 L259.2 357.25" clip-path="url(#clipPath2)"/>
      <path d="M267.2 357.25 L255.2 352.25 L258.2 357.25 L255.2 362.25 Z" clip-path="url(#clipPath2)" stroke="none"/>
      <text x="248.8631" xml:space="preserve" y="391.9639" clip-path="url(#clipPath2)" font-family="sans-serif" stroke="none">e</text>
      <path fill="none" d="M93.9667 346.9687 L95.45 345.5781 L107.9 335.4625 L120.35 326.9031 L132.8 319.9 L145.25 314.4531 L157.7 310.5625 L170.15 308.2281 L182.6 307.45 L195.05 308.2281 L207.5 310.5625 L219.95 314.4531 L232.4 319.9 L244.85 326.9031 L257.3 335.4625 L265.1161 341.8131 L265.1891 341.8815" clip-path="url(#clipPath2)"/>
      <path d="M271.3097 347.033 L265.3485 335.4803 L264.424 341.2375 L258.9091 343.1311 Z" clip-path="url(#clipPath2)" stroke="none"/>
      <text x="181.9187" xml:space="preserve" y="299.9355" clip-path="url(#clipPath2)" font-family="sans-serif" stroke="none">e</text>
      <path fill="none" d="M832.375 357.25 L859.975 357.25" clip-path="url(#clipPath2)"/>
      <path d="M867.975 357.25 L855.975 352.25 L858.975 357.25 L855.975 362.25 Z" clip-path="url(#clipPath2)" stroke="none"/>
      <text x="846.8381" xml:space="preserve" y="391.9639" clip-path="url(#clipPath2)" font-family="sans-serif" stroke="none">e</text>
      <path fill="none" d="M897.975 357.25 L933.575 357.25" clip-path="url(#clipPath2)"/>
      <path d="M941.575 357.25 L929.575 352.25 L932.575 357.25 L929.575 362.25 Z" clip-path="url(#clipPath2)" stroke="none"/>
      <text x="916.4381" xml:space="preserve" y="391.9639" clip-path="url(#clipPath2)" font-family="sans-serif" stroke="none">0</text>
      <path fill="none" d="M948.6149 344.531 L947.375 342.55 L938.175 332.05 L928.975 325.75 L924.375 324.175 L919.775 323.65 L915.175 324.175 L910.575 325.75 L901.375 332.05 L895.921 338.2747 L895.8679 338.3595" clip-path="url(#clipPath2)"/>
      <path d="M890.8731 344.6086 L902.2711 338.3567 L896.4923 337.5784 L894.4597 332.1132 Z" clip-path="url(#clipPath2)" stroke="none"/>
      <text x="916.4381" xml:space="preserve" y="328.3638" clip-path="url(#clipPath2)" font-family="sans-serif" stroke="none">e</text>
      <path fill="none" d="M971.575 357.25 L993.575 357.25" clip-path="url(#clipPath2)"/>
      <path d="M1001.575 357.25 L989.575 352.25 L992.575 357.25 L989.575 362.25 Z" clip-path="url(#clipPath2)" stroke="none"/>
      <text x="983.2381" xml:space="preserve" y="391.9639" clip-path="url(#clipPath2)" font-family="sans-serif" stroke="none">e</text>
      <path fill="none" d="M828.3181 346.9909 L829.825 345.5781 L842.275 335.4625 L854.725 326.9031 L867.175 319.9 L879.625 314.4531 L892.075 310.5625 L904.525 308.2281 L916.975 307.45 L929.425 308.2281 L941.875 310.5625 L954.325 314.4531 L966.775 319.9 L979.225 326.9031 L991.675 335.4625 L999.4911 341.8131 L999.5641 341.8815" clip-path="url(#clipPath2)"/>
      <path d="M1005.6847 347.033 L999.7235 335.4803 L998.799 341.2375 L993.2841 343.1311 Z" clip-path="url(#clipPath2)" stroke="none"/>
      <text x="916.2936" xml:space="preserve" y="299.9355" clip-path="url(#clipPath2)" font-family="sans-serif" stroke="none">e</text>
      <path fill="none" d="M1031.575 357.25 L1053.575 357.25" clip-path="url(#clipPath2)"/>
      <path d="M1061.575 357.25 L1049.575 352.25 L1052.575 357.25 L1049.575 362.25 Z" clip-path="url(#clipPath2)" stroke="none"/>
      <path fill="none" d="M297.2 357.25 L319.2 357.25" clip-path="url(#clipPath2)"/>
      <path d="M327.2 357.25 L315.2 352.25 L318.2 357.25 L315.2 362.25 Z" clip-path="url(#clipPath2)" stroke="none"/>
      <text x="308.8631" xml:space="preserve" y="391.9639" clip-path="url(#clipPath2)" font-family="sans-serif" stroke="none">e</text>
      <path fill="none" d="M538.525 288.25 L574.125 288.25" clip-path="url(#clipPath2)"/>
      <path d="M582.125 288.25 L570.125 283.25 L573.125 288.25 L570.125 293.25 Z" clip-path="url(#clipPath2)" stroke="none"/>
      <text x="556.9881" xml:space="preserve" y="322.9639" clip-path="url(#clipPath2)" font-family="sans-serif" stroke="none">1</text>
      <path fill="none" d="M353.139 346.9947 L368.807 332.3059 L395.4141 310.6877 L422.0211 292.3954 L448.6281 277.4289 L475.2352 265.7883 L501.8422 257.4736 L528.4492 252.4848 L555.0563 250.8219 L581.6633 252.4848 L608.2703 257.4736 L634.8773 265.7883 L661.4844 277.4289 L688.0914 292.3954 L714.6984 310.6877 L741.3054 332.3059 L751.1371 341.5231" clip-path="url(#clipPath2)"/>
      <path d="M756.9734 346.9947 L751.6387 335.1397 L750.4076 340.8392 L744.7993 342.4351 Z" clip-path="url(#clipPath2)" stroke="none"/>
      <text x="554.3749" xml:space="preserve" y="243.3074" clip-path="url(#clipPath2)" font-family="sans-serif" stroke="none">e</text>
      <path fill="none" d="M782.9125 357.25 L794.375 357.25" clip-path="url(#clipPath2)"/>
      <path d="M802.375 357.25 L790.375 352.25 L793.375 357.25 L790.375 362.25 Z" clip-path="url(#clipPath2)" stroke="none"/>
      <text x="789.3068" xml:space="preserve" y="391.9639" clip-path="url(#clipPath2)" font-family="sans-serif" stroke="none">e</text>
      <path fill="none" d="M357.2 357.25 L379.2 357.25" clip-path="url(#clipPath2)"/>
      <path d="M387.2 357.25 L375.2 352.25 L378.2 357.25 L375.2 362.25 Z" clip-path="url(#clipPath2)" stroke="none"/>
      <text x="368.8631" xml:space="preserve" y="391.9639" clip-path="url(#clipPath2)" font-family="sans-serif" stroke="none">e</text>
      <path fill="none" d="M407.1254 343.0953 L409.8188 335.3551 L419.5938 317.2516 L425.2899 309.6216 L431.525 302.9395 L438.2992 297.2052 L445.6125 292.4188 L453.4648 288.5802 L461.8562 285.6895 L470.7867 283.7466 L480.2562 282.7516 L500.8125 283.6051 L501.0039 283.6442" clip-path="url(#clipPath2)"/>
      <path d="M508.8417 285.2471 L498.0869 277.9442 L500.0242 283.4438 L496.0832 287.7414 Z" clip-path="url(#clipPath2)" stroke="none"/>
      <text x="445.4221" xml:space="preserve" y="311.2151" clip-path="url(#clipPath2)" font-family="sans-serif" stroke="none">e</text>
      <path fill="none" d="M611.8083 285.2471 L619.8375 283.6051 L640.3937 282.7516 L649.8633 283.7466 L658.7938 285.6895 L667.1851 288.5802 L675.0375 292.4188 L682.3508 297.2052 L689.125 302.9395 L695.3602 309.6216 L701.0563 317.2516 L710.8312 335.3551 L710.8954 335.5396" clip-path="url(#clipPath2)"/>
      <path d="M713.5246 343.0953 L714.3032 330.1186 L710.5668 334.5952 L704.8586 333.4051 Z" clip-path="url(#clipPath2)" stroke="none"/>
      <text x="662.9614" xml:space="preserve" y="308.1267" clip-path="url(#clipPath2)" font-family="sans-serif" stroke="none">e</text>
      <path fill="none" d="M733.45 357.25 L744.9125 357.25" clip-path="url(#clipPath2)"/>
      <path d="M752.9125 357.25 L740.9125 352.25 L743.9125 357.25 L740.9125 362.25 Z" clip-path="url(#clipPath2)" stroke="none"/>
      <text x="739.8444" xml:space="preserve" y="391.9639" clip-path="url(#clipPath2)" font-family="sans-serif" stroke="none">e</text>
      <path fill="none" d="M709.5516 369.3359 L698.6844 384.0959 L678.9188 407.3623 L659.1531 427.0493 L639.3875 443.1569 L619.6219 455.6849 L599.8563 464.6336 L580.0906 470.0027 L560.325 471.7925 L540.5594 470.0027 L520.7938 464.6336 L501.0281 455.6849 L481.2625 443.1569 L461.4969 427.0493 L441.7313 407.3623 L421.9656 384.0959 L415.8416 375.7781" clip-path="url(#clipPath2)"/>
      <path d="M411.0984 369.3359 L414.1868 381.9637 L416.4345 376.5834 L422.2396 376.0347 Z" clip-path="url(#clipPath2)" stroke="none"/>
      <text x="539.389" xml:space="preserve" y="500.8018" clip-path="url(#clipPath2)" font-family="sans-serif" stroke="none">e</text>
      <path fill="none" d="M556.045 392.25 L559.125 392.25" clip-path="url(#clipPath2)"/>
      <path d="M567.125 392.25 L555.125 387.25 L558.125 392.25 L555.125 397.25 Z" clip-path="url(#clipPath2)" stroke="none"/>
      <text x="558.248" xml:space="preserve" y="426.9639" clip-path="url(#clipPath2)" font-family="sans-serif" stroke="none">e</text>
      <path fill="none" d="M597.125 392.25 L604.125 392.25" clip-path="url(#clipPath2)"/>
      <path d="M612.125 392.25 L600.125 387.25 L603.125 392.25 L600.125 397.25 Z" clip-path="url(#clipPath2)" stroke="none"/>
      <text x="601.2881" xml:space="preserve" y="426.9639" clip-path="url(#clipPath2)" font-family="sans-serif" stroke="none">0</text>
      <path fill="none" d="M618.5776 379.9269 L615.875 376.8424 L610.25 372.9905 L604.625 371.7065 L599 372.9905 L596.6442 374.6037 L596.5783 374.6789" clip-path="url(#clipPath2)"/>
      <path d="M590.5981 379.9928 L602.8896 375.7595 L597.3258 374.0146 L596.2471 368.2843 Z" clip-path="url(#clipPath2)" stroke="none"/>
      <text x="601.2881" xml:space="preserve" y="376.4204" clip-path="url(#clipPath2)" font-family="sans-serif" stroke="none">e</text>
      <path fill="none" d="M642.125 392.25 L649.125 392.25" clip-path="url(#clipPath2)"/>
      <path d="M657.125 392.25 L645.125 387.25 L648.125 392.25 L645.125 397.25 Z" clip-path="url(#clipPath2)" stroke="none"/>
      <text x="646.2881" xml:space="preserve" y="426.9639" clip-path="url(#clipPath2)" font-family="sans-serif" stroke="none">e</text>
      <path fill="none" d="M552.3417 382.3654 L557.43 377.9131 L573.815 367.6725 L590.2 361.5281 L598.3925 359.992 L606.585 359.48 L614.7775 359.992 L622.97 361.5281 L639.355 367.6725 L654.678 377.2494 L654.7532 377.3152" clip-path="url(#clipPath2)"/>
      <path d="M660.9052 382.4293 L654.8735 370.9132 L653.9843 376.676 L648.481 378.6031 Z" clip-path="url(#clipPath2)" stroke="none"/>
      <text x="605.9036" xml:space="preserve" y="351.9655" clip-path="url(#clipPath2)" font-family="sans-serif" stroke="none">e</text>
      <path fill="none" d="M684.0931 383.2077 L700.0988 371.1149" clip-path="url(#clipPath2)"/>
      <path d="M706.4819 366.2923 L693.8932 369.5368 L699.301 371.7177 L699.9214 377.5155 Z" clip-path="url(#clipPath2)" stroke="none"/>
      <text x="673.866" xml:space="preserve" y="355.5276" clip-path="url(#clipPath2)" font-family="sans-serif" stroke="none">e</text>
      <path fill="none" d="M414.7 365.5415 L435.7983 379.5363" clip-path="url(#clipPath2)"/>
      <path d="M442.465 383.9585 L435.2288 373.1586 L434.9649 378.9836 L429.7011 381.4919 Z" clip-path="url(#clipPath2)" stroke="none"/>
      <text x="434.3791" xml:space="preserve" y="367.5035" clip-path="url(#clipPath2)" font-family="sans-serif" stroke="none">e</text>
      <path fill="none" d="M469.965 392.25 L476.965 392.25" clip-path="url(#clipPath2)"/>
      <path d="M484.965 392.25 L472.965 387.25 L475.965 392.25 L472.965 397.25 Z" clip-path="url(#clipPath2)" stroke="none"/>
      <text x="474.1281" xml:space="preserve" y="426.9639" clip-path="url(#clipPath2)" font-family="sans-serif" stroke="none">0</text>
      <path fill="none" d="M514.965 392.25 L518.045 392.25" clip-path="url(#clipPath2)"/>
      <path d="M526.045 392.25 L514.045 387.25 L517.045 392.25 L514.045 397.25 Z" clip-path="url(#clipPath2)" stroke="none"/>
      <text x="517.1681" xml:space="preserve" y="426.9639" clip-path="url(#clipPath2)" font-family="sans-serif" stroke="none">0</text>
    </g>
  </g>
</svg>
