<?xml version="1.0" encoding="UTF-8"?><svg xmlns="http://www.w3.org/2000/svg" xmlns:xlink="http://www.w3.org/1999/xlink" fill-opacity="1" color-rendering="auto" color-interpolation="auto" text-rendering="auto" stroke="black" stroke-linecap="square" width="230" stroke-miterlimit="10" shape-rendering="auto" stroke-opacity="1" fill="black" stroke-dasharray="none" font-weight="normal" stroke-width="1" height="149" font-family="'Dialog'" font-style="normal" stroke-linejoin="miter" font-size="12px" stroke-dashoffset="0" image-rendering="auto">
  <!--Generated by ySVG 2.6-->
  <defs id="genericDefs"/>
  <g>
    <defs id="defs1">
      <clipPath clipPathUnits="userSpaceOnUse" id="clipPath1">
        <path d="M0 0 L230 0 L230 149 L0 149 L0 0 Z"/>
      </clipPath>
      <clipPath clipPathUnits="userSpaceOnUse" id="clipPath2">
        <path d="M30 305 L260 305 L260 454 L30 454 L30 305 Z"/>
      </clipPath>
    </defs>
    <g fill="white" text-rendering="geometricPrecision" shape-rendering="geometricPrecision" transform="translate(-30,-305)" stroke="white">
      <rect x="30" width="230" height="149" y="305" clip-path="url(#clipPath2)" stroke="none"/>
    </g>
    <g fill="rgb(255,204,0)" text-rendering="geometricPrecision" shape-rendering="geometricPrecision" transform="matrix(1,0,0,1,-30,-305)" stroke="rgb(255,204,0)">
      <circle r="0.5" clip-path="url(#clipPath2)" cx="45.82" cy="357.25" stroke="none"/>
    </g>
    <g text-rendering="geometricPrecision" stroke-miterlimit="1.45" shape-rendering="geometricPrecision" transform="matrix(1,0,0,1,-30,-305)" stroke-linecap="butt">
      <circle fill="none" r="0.5" clip-path="url(#clipPath2)" cx="45.82" cy="357.25"/>
    </g>
    <g fill="rgb(255,204,0)" text-rendering="geometricPrecision" shape-rendering="geometricPrecision" transform="matrix(1,0,0,1,-30,-305)" stroke="rgb(255,204,0)">
      <circle r="15" clip-path="url(#clipPath2)" cx="83" cy="357.25" stroke="none"/>
    </g>
    <g text-rendering="geometricPrecision" stroke-miterlimit="1.45" shape-rendering="geometricPrecision" transform="matrix(1,0,0,1,-30,-305)" stroke-linecap="butt">
      <circle fill="none" r="15" clip-path="url(#clipPath2)" cx="83" cy="357.25"/>
    </g>
    <g fill="rgb(255,204,0)" text-rendering="geometricPrecision" shape-rendering="geometricPrecision" transform="matrix(1,0,0,1,-30,-305)" stroke="rgb(255,204,0)">
      <circle r="15" clip-path="url(#clipPath2)" cx="148.6" cy="357.25" stroke="none"/>
    </g>
    <g text-rendering="geometricPrecision" stroke-miterlimit="1.45" shape-rendering="geometricPrecision" transform="matrix(1,0,0,1,-30,-305)" stroke-linecap="butt">
      <circle fill="none" r="15" clip-path="url(#clipPath2)" cx="148.6" cy="357.25"/>
    </g>
    <g fill="rgb(255,204,0)" text-rendering="geometricPrecision" shape-rendering="geometricPrecision" transform="matrix(1,0,0,1,-30,-305)" stroke="rgb(255,204,0)">
      <circle r="15" clip-path="url(#clipPath2)" cx="222.2" cy="357.25" stroke="none"/>
    </g>
    <g text-rendering="geometricPrecision" stroke-miterlimit="1.45" shape-rendering="geometricPrecision" transform="matrix(1,0,0,1,-30,-305)" stroke-linecap="butt">
      <circle fill="none" r="15" clip-path="url(#clipPath2)" cx="222.2" cy="357.25"/>
    </g>
    <g fill="rgb(255,204,0)" text-rendering="geometricPrecision" shape-rendering="geometricPrecision" transform="matrix(1,0,0,1,-30,-305)" stroke="rgb(255,204,0)">
      <circle r="0.5" clip-path="url(#clipPath2)" cx="83" cy="322.536" stroke="none"/>
    </g>
    <g text-rendering="geometricPrecision" stroke-miterlimit="1.45" shape-rendering="geometricPrecision" transform="matrix(1,0,0,1,-30,-305)" stroke-linecap="butt">
      <circle fill="none" r="0.5" clip-path="url(#clipPath2)" cx="83" cy="322.536"/>
    </g>
    <g fill="rgb(255,204,0)" text-rendering="geometricPrecision" shape-rendering="geometricPrecision" transform="matrix(1,0,0,1,-30,-305)" stroke="rgb(255,204,0)">
      <circle r="0.5" clip-path="url(#clipPath2)" cx="148.6" cy="322.536" stroke="none"/>
    </g>
    <g text-rendering="geometricPrecision" stroke-miterlimit="1.45" shape-rendering="geometricPrecision" transform="matrix(1,0,0,1,-30,-305)" stroke-linecap="butt">
      <circle fill="none" r="0.5" clip-path="url(#clipPath2)" cx="148.6" cy="322.536"/>
    </g>
    <g fill="rgb(255,204,0)" text-rendering="geometricPrecision" shape-rendering="geometricPrecision" transform="matrix(1,0,0,1,-30,-305)" stroke="rgb(255,204,0)">
      <circle r="0.5" clip-path="url(#clipPath2)" cx="222.2" cy="322.536" stroke="none"/>
    </g>
    <g text-rendering="geometricPrecision" stroke-miterlimit="1.45" shape-rendering="geometricPrecision" transform="matrix(1,0,0,1,-30,-305)" stroke-linecap="butt">
      <circle fill="none" r="0.5" clip-path="url(#clipPath2)" cx="222.2" cy="322.536"/>
      <path fill="none" d="M46.292 357.25 L59.9798 357.25" clip-path="url(#clipPath2)"/>
      <path d="M67.9798 357.25 L55.9798 352.25 L58.9798 357.25 L55.9798 362.25 Z" clip-path="url(#clipPath2)" stroke="none"/>
      <path fill="none" d="M83.7797 372.2047 L83.7365 373.6775 L82.5732 379.5228 L80.6869 383.9138 L78.3009 386.9443 L75.6389 388.7078 L70.3805 388.8082 L66.6995 384.9638 L66.0092 381.7963 L66.3838 377.9235 L67.7398 374.2664 L67.7958 374.1836" clip-path="url(#clipPath2)"/>
      <path d="M72.0999 367.44 L61.4291 374.8653 L67.2578 375.0265 L69.8586 380.2453 Z" clip-path="url(#clipPath2)" stroke="none"/>
      <text x="55.5788" xml:space="preserve" y="400.6577" clip-path="url(#clipPath2)" font-family="sans-serif" stroke="none">0</text>
      <path fill="none" d="M98 357.25 L125.6 357.25" clip-path="url(#clipPath2)"/>
      <path d="M133.6 357.25 L121.6 352.25 L124.6 357.25 L121.6 362.25 Z" clip-path="url(#clipPath2)" stroke="none"/>
      <text x="109.9031" xml:space="preserve" y="347.9319" clip-path="url(#clipPath2)" font-family="sans-serif" stroke="none">1</text>
      <path fill="none" d="M154.759 370.9152 L154.9333 371.4011 L155.8828 376.902 L155.6699 381.3651 L154.5312 384.7993 L152.7034 387.2138 L147.9273 389.0194 L143.2354 386.8538 L141.5127 384.3043 L140.5211 380.7891 L140.509 378.5206 L140.5312 378.4231" clip-path="url(#clipPath2)"/>
      <path d="M141.8067 370.5254 L134.9574 381.5747 L140.3718 379.4103 L144.8295 383.1691 Z" clip-path="url(#clipPath2)" stroke="none"/>
      <text x="160.0505" xml:space="preserve" y="393.7178" clip-path="url(#clipPath2)" font-family="sans-serif" stroke="none">1</text>
      <path fill="none" d="M163.6 357.25 L199.2 357.25" clip-path="url(#clipPath2)"/>
      <path d="M207.2 357.25 L195.2 352.25 L198.2 357.25 L195.2 362.25 Z" clip-path="url(#clipPath2)" stroke="none"/>
      <text x="178.4791" xml:space="preserve" y="348.4439" clip-path="url(#clipPath2)" font-family="sans-serif" stroke="none">0</text>
      <path fill="none" d="M214.3326 370.0515 L213.5 371.4062 L204.8 383.675 L196.1 394.0562 L187.4 402.55 L178.7 409.1562 L170 413.875 L161.3 416.7062 L152.6 417.65 L143.9 416.7062 L135.2 413.875 L126.5 409.1562 L117.8 402.55 L109.1 394.0562 L100.4 383.675 L95.4093 376.6371 L95.3569 376.5519" clip-path="url(#clipPath2)"/>
      <path d="M90.8106 369.9693 L93.516 382.6847 L95.9252 377.3747 L101.7442 377.0018 Z" clip-path="url(#clipPath2)" stroke="none"/>
      <text x="148.2145" xml:space="preserve" y="433.8982" clip-path="url(#clipPath2)" font-family="sans-serif" stroke="none">0</text>
      <path fill="none" d="M83 342.25 L83 331.036" clip-path="url(#clipPath2)"/>
      <path d="M83 323.036 L78 335.036 L83 332.036 L88 335.036 Z" clip-path="url(#clipPath2)" stroke="none"/>
      <path fill="none" d="M148.6 342.25 L148.6 331.036" clip-path="url(#clipPath2)"/>
      <path d="M148.6 323.036 L143.6 335.036 L148.6 332.036 L153.6 335.036 Z" clip-path="url(#clipPath2)" stroke="none"/>
      <path fill="none" d="M222.2 342.25 L222.2 331.036" clip-path="url(#clipPath2)"/>
      <path d="M222.2 323.036 L217.2 335.036 L222.2 332.036 L227.2 335.036 Z" clip-path="url(#clipPath2)" stroke="none"/>
    </g>
  </g>
</svg>
